SplineFontDB: 3.0
FontName: FdSymbolE-Bold
FullName: FdSymbolE-Bold
FamilyName: FdSymbolE
Weight: Bold
Copyright: Copyright (c) 2012, Michael Ummels. This Font Software is licensed under the SIL Open Font License, Version 1.1.
Version: 1.008
ItalicAngle: 0
UnderlinePosition: -100
UnderlineWidth: 50
Ascent: 800
Descent: 200
InvalidEm: 0
LayerCount: 2
Layer: 0 0 "Back" 1
Layer: 1 0 "Fore" 0
UniqueID: 4245363
OS2Version: 0
OS2_WeightWidthSlopeOnly: 0
OS2_UseTypoMetrics: 0
CreationTime: 1431875279
ModificationTime: 1431875280
OS2TypoAscent: 0
OS2TypoAOffset: 1
OS2TypoDescent: 0
OS2TypoDOffset: 1
OS2TypoLinegap: 0
OS2WinAscent: 0
OS2WinAOffset: 1
OS2WinDescent: 0
OS2WinDOffset: 1
HheadAscent: 0
HheadAOffset: 1
HheadDescent: 0
HheadDOffset: 1
OS2Vendor: 'PfEd'
DEI: 91125
Encoding: Custom
UnicodeInterp: none
NameList: AGL For New Fonts
DisplaySize: -48
AntiAlias: 1
FitToEm: 0
BeginPrivate: 2
BlueValues 31 [-10 0 546 556 707 717 754 764]
OtherBlues 11 [-230 -220]
EndPrivate
BeginChars: 256 128

StartChar: sym090
Encoding: 0 -1 0
Width: 1250
Flags: W
HStem: 225 100<90 575 675 1160>
VStem: 575 100<-260 225 325 810>
LayerCount: 2
Back
Fore
SplineSet
575 810 m 1
 675 810 l 1
 675 325 l 1
 1160 325 l 1
 1160 225 l 1
 675 225 l 1
 675 -260 l 1
 575 -260 l 1
 575 225 l 1
 90 225 l 1
 90 325 l 1
 575 325 l 1
 575 810 l 1
EndSplineSet
EndChar

StartChar: sym090.disp
Encoding: 1 -1 1
Width: 1678
Flags: W
HStem: 225 100<90 789 889 1588>
VStem: 789 100<-474 225 325 1024>
LayerCount: 2
Back
Fore
SplineSet
789 1024 m 1
 889 1024 l 1
 889 325 l 1
 1588 325 l 1
 1588 225 l 1
 889 225 l 1
 889 -474 l 1
 789 -474 l 1
 789 225 l 1
 90 225 l 1
 90 325 l 1
 789 325 l 1
 789 1024 l 1
EndSplineSet
EndChar

StartChar: uni2A09
Encoding: 2 10761 2
Width: 1250
Flags: W
LayerCount: 2
Back
Fore
SplineSet
1160 -189 m 1
 1089 -260 l 1
 625 204 l 1
 161 -260 l 1
 90 -189 l 1
 554 275 l 1
 90 739 l 1
 161 810 l 1
 625 346 l 1
 1089 810 l 1
 1160 739 l 1
 696 275 l 1
 1160 -189 l 1
EndSplineSet
EndChar

StartChar: uni2A09.disp
Encoding: 3 -1 3
Width: 1678
Flags: W
LayerCount: 2
Back
Fore
SplineSet
1588 -403 m 1
 1517 -474 l 1
 839 204 l 1
 161 -474 l 1
 90 -403 l 1
 768 275 l 1
 90 953 l 1
 161 1024 l 1
 839 346 l 1
 1517 1024 l 1
 1588 953 l 1
 910 275 l 1
 1588 -403 l 1
EndSplineSet
EndChar

StartChar: uni22C0
Encoding: 4 8896 4
Width: 900
Flags: W
LayerCount: 2
Back
Fore
SplineSet
803 -231 m 1
 708 -260 l 1
 450 588 l 1
 192 -260 l 1
 97 -231 l 1
 413 810 l 1
 487 810 l 1
 803 -231 l 1
EndSplineSet
EndChar

StartChar: uni22C0.disp
Encoding: 5 -1 5
Width: 1188
Flags: W
LayerCount: 2
Back
Fore
SplineSet
1091 -444 m 1
 996 -474 l 1
 594 807 l 1
 192 -474 l 1
 97 -444 l 1
 557 1024 l 1
 631 1024 l 1
 1091 -444 l 1
EndSplineSet
EndChar

StartChar: uni22C1
Encoding: 6 8897 6
Width: 900
Flags: W
LayerCount: 2
Back
Fore
SplineSet
97 781 m 1
 192 810 l 1
 450 -38 l 1
 708 810 l 1
 803 781 l 1
 487 -260 l 1
 413 -260 l 1
 97 781 l 1
EndSplineSet
EndChar

StartChar: uni22C1.disp
Encoding: 7 -1 7
Width: 1188
Flags: W
LayerCount: 2
Back
Fore
SplineSet
97 994 m 1
 192 1024 l 1
 594 -257 l 1
 996 1024 l 1
 1091 994 l 1
 631 -474 l 1
 557 -474 l 1
 97 994 l 1
EndSplineSet
EndChar

StartChar: sym091
Encoding: 8 -1 8
Width: 900
Flags: W
HStem: -98 211<408.05 491.95>
VStem: 344 212<-34.1979 49.2443>
LayerCount: 2
Back
Fore
SplineSet
803 -231 m 1
 708 -260 l 1
 450 588 l 1
 192 -260 l 1
 97 -231 l 1
 413 810 l 1
 487 810 l 1
 803 -231 l 1
556 8 m 0
 556 -14 533 -37 514 -56 c 0
 495 -75 471 -98 450 -98 c 0
 429 -98 405 -75 386 -56 c 0
 368 -37 344 -14 344 8 c 0
 344 29 368 52 386 71 c 0
 405 90 429 113 450 113 c 0
 471 113 495 90 514 71 c 0
 533 52 556 29 556 8 c 0
EndSplineSet
EndChar

StartChar: sym091.disp
Encoding: 9 -1 9
Width: 1188
Flags: W
HStem: -205 212<552.05 635.95>
VStem: 488 212<-141.198 -57.7557>
LayerCount: 2
Back
Fore
SplineSet
1091 -444 m 1
 996 -474 l 1
 594 807 l 1
 192 -474 l 1
 97 -444 l 1
 557 1024 l 1
 631 1024 l 1
 1091 -444 l 1
700 -99 m 0
 700 -121 677 -144 658 -163 c 0
 639 -182 615 -205 594 -205 c 0
 573 -205 549 -182 530 -163 c 0
 512 -144 488 -121 488 -99 c 0
 488 -78 512 -55 530 -36 c 0
 549 -17 573 7 594 7 c 0
 615 7 639 -17 658 -36 c 0
 677 -55 700 -78 700 -99 c 0
EndSplineSet
EndChar

StartChar: sym092
Encoding: 10 -1 10
Width: 900
Flags: W
HStem: 437 212<408.05 491.95>
VStem: 344 212<500.802 584.244>
LayerCount: 2
Back
Fore
SplineSet
97 781 m 1
 192 810 l 1
 450 -38 l 1
 708 810 l 1
 803 781 l 1
 487 -260 l 1
 413 -260 l 1
 97 781 l 1
556 543 m 0
 556 521 533 498 514 479 c 0
 495 460 471 437 450 437 c 0
 429 437 405 460 386 479 c 0
 368 498 344 521 344 543 c 0
 344 564 368 587 386 606 c 0
 405 625 429 649 450 649 c 0
 471 649 495 625 514 606 c 0
 533 587 556 564 556 543 c 0
EndSplineSet
EndChar

StartChar: sym092.disp
Encoding: 11 -1 11
Width: 1188
Flags: W
HStem: 543 212<552.05 635.95>
VStem: 488 212<607.756 691.198>
LayerCount: 2
Back
Fore
SplineSet
97 994 m 1
 192 1024 l 1
 594 -257 l 1
 996 1024 l 1
 1091 994 l 1
 631 -474 l 1
 557 -474 l 1
 97 994 l 1
700 649 m 0
 700 628 677 605 658 586 c 0
 639 567 615 543 594 543 c 0
 573 543 549 567 530 586 c 0
 512 605 488 628 488 649 c 0
 488 671 512 694 530 713 c 0
 549 732 573 755 594 755 c 0
 615 755 639 732 658 713 c 0
 677 694 700 671 700 649 c 0
EndSplineSet
EndChar

StartChar: uni2A07
Encoding: 12 10759 12
Width: 1140
Flags: W
LayerCount: 2
Back
Fore
SplineSet
1043 -231 m 1
 948 -260 l 1
 690 588 l 1
 622 365 l 1
 803 -231 l 1
 708 -260 l 1
 570 194 l 1
 432 -260 l 1
 337 -231 l 1
 518 365 l 1
 450 588 l 1
 192 -260 l 1
 97 -231 l 1
 413 810 l 1
 487 810 l 1
 570 537 l 1
 653 810 l 1
 727 810 l 1
 1043 -231 l 1
EndSplineSet
EndChar

StartChar: uni2A07.disp
Encoding: 13 -1 13
Width: 1524
Flags: W
LayerCount: 2
Back
Fore
SplineSet
1427 -444 m 1
 1332 -474 l 1
 930 807 l 1
 814 439 l 1
 1091 -444 l 1
 996 -474 l 1
 762 272 l 1
 528 -474 l 1
 433 -444 l 1
 710 439 l 1
 594 807 l 1
 192 -474 l 1
 97 -444 l 1
 557 1024 l 1
 631 1024 l 1
 762 606 l 1
 893 1024 l 1
 967 1024 l 1
 1427 -444 l 1
EndSplineSet
EndChar

StartChar: uni2A08
Encoding: 14 10760 14
Width: 1140
Flags: W
LayerCount: 2
Back
Fore
SplineSet
337 781 m 1
 432 810 l 1
 570 356 l 1
 708 810 l 1
 803 781 l 1
 622 185 l 1
 690 -38 l 1
 948 810 l 1
 1043 781 l 1
 727 -260 l 1
 653 -260 l 1
 570 13 l 1
 487 -260 l 1
 413 -260 l 1
 97 781 l 1
 192 810 l 1
 450 -38 l 1
 518 185 l 1
 337 781 l 1
EndSplineSet
EndChar

StartChar: uni2A08.disp
Encoding: 15 -1 15
Width: 1524
Flags: W
LayerCount: 2
Back
Fore
SplineSet
433 994 m 1
 528 1024 l 1
 762 278 l 1
 996 1024 l 1
 1091 994 l 1
 814 111 l 1
 930 -257 l 1
 1332 1024 l 1
 1427 994 l 1
 967 -474 l 1
 893 -474 l 1
 762 -56 l 1
 631 -474 l 1
 557 -474 l 1
 97 994 l 1
 192 1024 l 1
 594 -257 l 1
 710 111 l 1
 433 994 l 1
EndSplineSet
EndChar

StartChar: sym093
Encoding: 16 -1 16
Width: 900
Flags: W
VStem: 400 100<498.688 810>
LayerCount: 2
Back
Fore
SplineSet
450 249 m 1
 404 56 321 -123 174 -260 c 1
 106 -187 l 1
 358 48 400 413 400 760 c 2
 400 810 l 1
 500 810 l 1
 500 760 l 2
 500 413 542 48 794 -187 c 1
 726 -260 l 1
 579 -123 496 56 450 249 c 1
EndSplineSet
EndChar

StartChar: sym093.disp
Encoding: 17 -1 17
Width: 1188
Flags: W
VStem: 544 100<712.986 1024>
LayerCount: 2
Back
Fore
SplineSet
594 359 m 1
 534 42 411 -253 174 -474 c 1
 106 -401 l 1
 473 -59 544 470 544 974 c 2
 544 1024 l 1
 644 1024 l 1
 644 974 l 2
 644 470 715 -59 1082 -401 c 1
 1014 -474 l 1
 777 -253 654 42 594 359 c 1
EndSplineSet
EndChar

StartChar: sym094
Encoding: 18 -1 18
Width: 900
Flags: W
VStem: 400 100<-260 51.3125>
LayerCount: 2
Back
Fore
SplineSet
450 301 m 1
 496 494 579 673 726 810 c 1
 794 737 l 1
 542 502 500 137 500 -210 c 2
 500 -260 l 1
 400 -260 l 1
 400 -210 l 2
 400 137 358 502 106 737 c 1
 174 810 l 1
 321 673 404 494 450 301 c 1
EndSplineSet
EndChar

StartChar: sym094.disp
Encoding: 19 -1 19
Width: 1188
Flags: W
VStem: 544 100<-474 -162.986>
LayerCount: 2
Back
Fore
SplineSet
594 191 m 1
 654 508 777 803 1014 1024 c 1
 1082 951 l 1
 715 609 644 80 644 -424 c 2
 644 -474 l 1
 544 -474 l 1
 544 -424 l 2
 544 80 473 609 106 951 c 1
 174 1024 l 1
 411 803 534 508 594 191 c 1
EndSplineSet
EndChar

StartChar: uni22C2
Encoding: 20 8898 20
Width: 900
Flags: W
HStem: 710 100<336.271 563.729>
VStem: 90 100<-260 578.272> 710 100<-260 578.272>
LayerCount: 2
Back
Fore
SplineSet
710 -260 m 1
 710 497 l 2
 710 624 586 710 450 710 c 0
 314 710 190 624 190 497 c 2
 190 -260 l 1
 90 -260 l 1
 90 497 l 2
 90 679 259 810 450 810 c 0
 641 810 810 679 810 497 c 2
 810 -260 l 1
 710 -260 l 1
EndSplineSet
EndChar

StartChar: uni22C2.disp
Encoding: 21 -1 21
Width: 1188
Flags: W
HStem: 924 100<455.243 732.757>
VStem: 90 100<-474 687.105> 998 100<-474 687.105>
LayerCount: 2
Back
Fore
SplineSet
998 -474 m 1
 998 584 l 2
 998 785 806 924 594 924 c 0
 382 924 190 785 190 584 c 2
 190 -474 l 1
 90 -474 l 1
 90 584 l 2
 90 839 327 1024 594 1024 c 0
 861 1024 1098 839 1098 584 c 2
 1098 -474 l 1
 998 -474 l 1
EndSplineSet
EndChar

StartChar: uni22C3
Encoding: 22 8899 22
Width: 900
Flags: W
HStem: -260 100<336.271 563.729>
VStem: 90 100<-28.272 810> 710 100<-28.272 810>
LayerCount: 2
Back
Fore
SplineSet
190 810 m 1
 190 53 l 2
 190 -74 314 -160 450 -160 c 0
 586 -160 710 -74 710 53 c 2
 710 810 l 1
 810 810 l 1
 810 53 l 2
 810 -129 641 -260 450 -260 c 0
 259 -260 90 -129 90 53 c 2
 90 810 l 1
 190 810 l 1
EndSplineSet
EndChar

StartChar: uni22C3.disp
Encoding: 23 -1 23
Width: 1188
Flags: W
HStem: -474 100<455.243 732.757>
VStem: 90 100<-137.105 1024> 998 100<-137.105 1024>
LayerCount: 2
Back
Fore
SplineSet
190 1024 m 1
 190 -34 l 2
 190 -235 382 -374 594 -374 c 0
 806 -374 998 -235 998 -34 c 2
 998 1024 l 1
 1098 1024 l 1
 1098 -34 l 2
 1098 -289 861 -474 594 -474 c 0
 327 -474 90 -289 90 -34 c 2
 90 1024 l 1
 190 1024 l 1
EndSplineSet
EndChar

StartChar: sym095
Encoding: 24 -1 24
Width: 900
Flags: W
HStem: 35 212<408.05 491.95> 710 100<336.271 563.729>
VStem: 90 100<-260 578.272> 344 212<99.7557 182.95> 710 100<-260 578.272>
CounterMasks: 1 38
LayerCount: 2
Back
Fore
SplineSet
710 -260 m 1
 710 497 l 2
 710 624 586 710 450 710 c 0
 314 710 190 624 190 497 c 2
 190 -260 l 1
 90 -260 l 1
 90 497 l 2
 90 679 259 810 450 810 c 0
 641 810 810 679 810 497 c 2
 810 -260 l 1
 710 -260 l 1
556 141 m 0
 556 120 533 97 514 78 c 0
 495 59 471 35 450 35 c 0
 429 35 405 59 386 78 c 0
 368 97 344 120 344 141 c 0
 344 162 368 186 386 205 c 0
 405 224 429 247 450 247 c 0
 471 247 495 224 514 205 c 0
 533 186 556 162 556 141 c 0
EndSplineSet
EndChar

StartChar: sym095.disp
Encoding: 25 -1 25
Width: 1188
Flags: W
HStem: -18 212<552.05 635.95> 924 100<455.243 732.757>
VStem: 90 100<-474 687.105> 488 212<46.0503 129.244> 998 100<-474 687.105>
CounterMasks: 1 38
LayerCount: 2
Back
Fore
SplineSet
998 -474 m 1
 998 584 l 2
 998 785 806 924 594 924 c 0
 382 924 190 785 190 584 c 2
 190 -474 l 1
 90 -474 l 1
 90 584 l 2
 90 839 327 1024 594 1024 c 0
 861 1024 1098 839 1098 584 c 2
 1098 -474 l 1
 998 -474 l 1
700 88 m 0
 700 67 677 43 658 24 c 0
 639 5 615 -18 594 -18 c 0
 573 -18 549 5 530 24 c 0
 512 43 488 67 488 88 c 0
 488 109 512 132 530 151 c 0
 549 170 573 194 594 194 c 0
 615 194 639 170 658 151 c 0
 677 132 700 109 700 88 c 0
EndSplineSet
EndChar

StartChar: uni2A03
Encoding: 26 10755 26
Width: 900
Flags: W
HStem: -260 100<336.271 563.729> 303 212<408.05 491.95>
VStem: 90 100<-28.272 810> 344 212<367.05 450.244> 710 100<-28.272 810>
CounterMasks: 1 38
LayerCount: 2
Back
Fore
SplineSet
190 810 m 1
 190 53 l 2
 190 -74 314 -160 450 -160 c 0
 586 -160 710 -74 710 53 c 2
 710 810 l 1
 810 810 l 1
 810 53 l 2
 810 -129 641 -260 450 -260 c 0
 259 -260 90 -129 90 53 c 2
 90 810 l 1
 190 810 l 1
556 409 m 0
 556 388 533 364 514 345 c 0
 495 326 471 303 450 303 c 0
 429 303 405 326 386 345 c 0
 368 364 344 388 344 409 c 0
 344 430 368 453 386 472 c 0
 405 491 429 515 450 515 c 0
 471 515 495 491 514 472 c 0
 533 453 556 430 556 409 c 0
EndSplineSet
EndChar

StartChar: uni2A03.disp
Encoding: 27 -1 27
Width: 1188
Flags: W
HStem: -474 100<455.243 732.757> 356 212<552.05 635.95>
VStem: 90 100<-137.105 1024> 488 212<420.756 503.95> 998 100<-137.105 1024>
CounterMasks: 1 38
LayerCount: 2
Back
Fore
SplineSet
190 1024 m 1
 190 -34 l 2
 190 -235 382 -374 594 -374 c 0
 806 -374 998 -235 998 -34 c 2
 998 1024 l 1
 1098 1024 l 1
 1098 -34 l 2
 1098 -289 861 -474 594 -474 c 0
 327 -474 90 -289 90 -34 c 2
 90 1024 l 1
 190 1024 l 1
700 462 m 0
 700 441 677 418 658 399 c 0
 639 380 615 356 594 356 c 0
 573 356 549 380 530 399 c 0
 512 418 488 441 488 462 c 0
 488 483 512 507 530 526 c 0
 549 545 573 568 594 568 c 0
 615 568 639 545 658 526 c 0
 677 507 700 483 700 462 c 0
EndSplineSet
EndChar

StartChar: sym096
Encoding: 28 -1 28
Width: 900
Flags: W
HStem: 135 100<270 400 500 630> 710 100<336.271 563.729>
VStem: 90 100<-260 578.272> 400 100<5 135 235 365> 710 100<-260 578.272>
CounterMasks: 1 38
LayerCount: 2
Back
Fore
SplineSet
710 -260 m 1
 710 497 l 2
 710 624 586 710 450 710 c 0
 314 710 190 624 190 497 c 2
 190 -260 l 1
 90 -260 l 1
 90 497 l 2
 90 679 259 810 450 810 c 0
 641 810 810 679 810 497 c 2
 810 -260 l 1
 710 -260 l 1
400 365 m 1
 500 365 l 1
 500 235 l 1
 630 235 l 1
 630 135 l 1
 500 135 l 1
 500 5 l 1
 400 5 l 1
 400 135 l 1
 270 135 l 1
 270 235 l 1
 400 235 l 1
 400 365 l 1
EndSplineSet
EndChar

StartChar: sym096.disp
Encoding: 29 -1 29
Width: 1188
Flags: W
HStem: 99 100<342 544 644 846> 924 100<455.243 732.757>
VStem: 90 100<-474 687.105> 544 100<-103 99 199 401> 998 100<-474 687.105>
CounterMasks: 1 38
LayerCount: 2
Back
Fore
SplineSet
998 -474 m 1
 998 584 l 2
 998 785 806 924 594 924 c 0
 382 924 190 785 190 584 c 2
 190 -474 l 1
 90 -474 l 1
 90 584 l 2
 90 839 327 1024 594 1024 c 0
 861 1024 1098 839 1098 584 c 2
 1098 -474 l 1
 998 -474 l 1
544 401 m 1
 644 401 l 1
 644 199 l 1
 846 199 l 1
 846 99 l 1
 644 99 l 1
 644 -103 l 1
 544 -103 l 1
 544 99 l 1
 342 99 l 1
 342 199 l 1
 544 199 l 1
 544 401 l 1
EndSplineSet
EndChar

StartChar: uni2A04
Encoding: 30 10756 30
Width: 900
Flags: W
HStem: -260 100<336.271 563.729> 315 100<270 400 500 630> 525 20G<400 500>
VStem: 90 100<-28.272 810> 400 100<185 315 415 545> 710 100<-28.272 810>
CounterMasks: 1 1c
LayerCount: 2
Back
Fore
SplineSet
190 810 m 1
 190 53 l 2
 190 -74 314 -160 450 -160 c 0
 586 -160 710 -74 710 53 c 2
 710 810 l 1
 810 810 l 1
 810 53 l 2
 810 -129 641 -260 450 -260 c 0
 259 -260 90 -129 90 53 c 2
 90 810 l 1
 190 810 l 1
400 545 m 1
 500 545 l 1
 500 415 l 1
 630 415 l 1
 630 315 l 1
 500 315 l 1
 500 185 l 1
 400 185 l 1
 400 315 l 1
 270 315 l 1
 270 415 l 1
 400 415 l 1
 400 545 l 1
EndSplineSet
EndChar

StartChar: uni2A04.disp
Encoding: 31 -1 31
Width: 1188
Flags: W
HStem: -474 100<455.243 732.757> 351 100<342 544 644 846>
VStem: 90 100<-137.105 1024> 544 100<149 351 451 653> 998 100<-137.105 1024>
CounterMasks: 1 38
LayerCount: 2
Back
Fore
SplineSet
190 1024 m 1
 190 -34 l 2
 190 -235 382 -374 594 -374 c 0
 806 -374 998 -235 998 -34 c 2
 998 1024 l 1
 1098 1024 l 1
 1098 -34 l 2
 1098 -289 861 -474 594 -474 c 0
 327 -474 90 -289 90 -34 c 2
 90 1024 l 1
 190 1024 l 1
544 653 m 1
 644 653 l 1
 644 451 l 1
 846 451 l 1
 846 351 l 1
 644 351 l 1
 644 149 l 1
 544 149 l 1
 544 351 l 1
 342 351 l 1
 342 451 l 1
 544 451 l 1
 544 653 l 1
EndSplineSet
EndChar

StartChar: uni2A05
Encoding: 32 10757 32
Width: 900
Flags: W
HStem: 710 100<190 710>
VStem: 90 100<-260 710> 710 100<-260 710>
LayerCount: 2
Back
Fore
SplineSet
190 -260 m 1
 90 -260 l 1
 90 97 90 453 90 810 c 1
 810 810 l 1
 810 453 810 97 810 -260 c 1
 710 -260 l 1
 710 710 l 1
 190 710 l 1
 190 -260 l 1
EndSplineSet
EndChar

StartChar: uni2A05.disp
Encoding: 33 -1 33
Width: 1188
Flags: W
HStem: 924 100<190 998>
VStem: 90 100<-474 924> 998 100<-474 924>
LayerCount: 2
Back
Fore
SplineSet
190 -474 m 1
 90 -474 l 1
 90 25 90 525 90 1024 c 1
 1098 1024 l 1
 1098 525 1098 25 1098 -474 c 1
 998 -474 l 1
 998 924 l 1
 190 924 l 1
 190 -474 l 1
EndSplineSet
EndChar

StartChar: uni2A06
Encoding: 34 10758 34
Width: 900
Flags: W
HStem: -260 100<190 710>
VStem: 90 100<-160 810> 710 100<-160 810>
LayerCount: 2
Back
Fore
SplineSet
90 810 m 1
 190 810 l 1
 190 -160 l 1
 710 -160 l 1
 710 810 l 1
 810 810 l 1
 810 453 810 97 810 -260 c 1
 90 -260 l 1
 90 97 90 453 90 810 c 1
EndSplineSet
EndChar

StartChar: uni2A06.disp
Encoding: 35 -1 35
Width: 1188
Flags: W
HStem: -474 100<190 998>
VStem: 90 100<-374 1024> 998 100<-374 1024>
LayerCount: 2
Back
Fore
SplineSet
90 1024 m 1
 190 1024 l 1
 190 -374 l 1
 998 -374 l 1
 998 1024 l 1
 1098 1024 l 1
 1098 525 1098 25 1098 -474 c 1
 90 -474 l 1
 90 25 90 525 90 1024 c 1
EndSplineSet
EndChar

StartChar: sym097
Encoding: 36 -1 36
Width: 900
Flags: W
HStem: 35 212<408.05 491.95> 710 100<190 710>
VStem: 90 100<-260 710> 344 212<99.7557 182.95> 710 100<-260 710>
CounterMasks: 1 38
LayerCount: 2
Back
Fore
SplineSet
190 -260 m 1
 90 -260 l 1
 90 97 90 453 90 810 c 1
 810 810 l 1
 810 453 810 97 810 -260 c 1
 710 -260 l 1
 710 710 l 1
 190 710 l 1
 190 -260 l 1
556 141 m 0
 556 120 533 97 514 78 c 0
 495 59 471 35 450 35 c 0
 429 35 405 59 386 78 c 0
 368 97 344 120 344 141 c 0
 344 162 368 186 386 205 c 0
 405 224 429 247 450 247 c 0
 471 247 495 224 514 205 c 0
 533 186 556 162 556 141 c 0
EndSplineSet
EndChar

StartChar: sym097.disp
Encoding: 37 -1 37
Width: 1188
Flags: W
HStem: -18 212<552.05 635.95> 924 100<190 998>
VStem: 90 100<-474 924> 488 212<46.0503 129.244> 998 100<-474 924>
CounterMasks: 1 38
LayerCount: 2
Back
Fore
SplineSet
190 -474 m 1
 90 -474 l 1
 90 25 90 525 90 1024 c 1
 1098 1024 l 1
 1098 525 1098 25 1098 -474 c 1
 998 -474 l 1
 998 924 l 1
 190 924 l 1
 190 -474 l 1
700 88 m 0
 700 67 677 43 658 24 c 0
 639 5 615 -18 594 -18 c 0
 573 -18 549 5 530 24 c 0
 512 43 488 67 488 88 c 0
 488 109 512 132 530 151 c 0
 549 170 573 194 594 194 c 0
 615 194 639 170 658 151 c 0
 677 132 700 109 700 88 c 0
EndSplineSet
EndChar

StartChar: sym098
Encoding: 38 -1 38
Width: 900
Flags: W
HStem: -260 100<190 710> 303 212<408.05 491.95>
VStem: 90 100<-160 810> 344 212<367.05 450.244> 710 100<-160 810>
CounterMasks: 1 38
LayerCount: 2
Back
Fore
SplineSet
90 810 m 1
 190 810 l 1
 190 -160 l 1
 710 -160 l 1
 710 810 l 1
 810 810 l 1
 810 453 810 97 810 -260 c 1
 90 -260 l 1
 90 97 90 453 90 810 c 1
556 409 m 0
 556 388 533 364 514 345 c 0
 495 326 471 303 450 303 c 0
 429 303 405 326 386 345 c 0
 368 364 344 388 344 409 c 0
 344 430 368 453 386 472 c 0
 405 491 429 515 450 515 c 0
 471 515 495 491 514 472 c 0
 533 453 556 430 556 409 c 0
EndSplineSet
EndChar

StartChar: sym098.disp
Encoding: 39 -1 39
Width: 1188
Flags: W
HStem: -474 100<190 998> 356 212<552.05 635.95>
VStem: 90 100<-374 1024> 488 212<420.756 503.95> 998 100<-374 1024>
CounterMasks: 1 38
LayerCount: 2
Back
Fore
SplineSet
90 1024 m 1
 190 1024 l 1
 190 -374 l 1
 998 -374 l 1
 998 1024 l 1
 1098 1024 l 1
 1098 525 1098 25 1098 -474 c 1
 90 -474 l 1
 90 25 90 525 90 1024 c 1
700 462 m 0
 700 441 677 418 658 399 c 0
 639 380 615 356 594 356 c 0
 573 356 549 380 530 399 c 0
 512 418 488 441 488 462 c 0
 488 483 512 507 530 526 c 0
 549 545 573 568 594 568 c 0
 615 568 639 545 658 526 c 0
 677 507 700 483 700 462 c 0
EndSplineSet
EndChar

StartChar: sym099
Encoding: 40 -1 40
Width: 900
Flags: W
HStem: 135 100<270 400 500 630> 710 100<190 710>
VStem: 90 100<-260 710> 400 100<5 135 235 365> 710 100<-260 710>
CounterMasks: 1 38
LayerCount: 2
Back
Fore
SplineSet
190 -260 m 1
 90 -260 l 1
 90 97 90 453 90 810 c 1
 810 810 l 1
 810 453 810 97 810 -260 c 1
 710 -260 l 1
 710 710 l 1
 190 710 l 1
 190 -260 l 1
400 365 m 1
 500 365 l 1
 500 235 l 1
 630 235 l 1
 630 135 l 1
 500 135 l 1
 500 5 l 1
 400 5 l 1
 400 135 l 1
 270 135 l 1
 270 235 l 1
 400 235 l 1
 400 365 l 1
EndSplineSet
EndChar

StartChar: sym099.disp
Encoding: 41 -1 41
Width: 1188
Flags: W
HStem: 99 100<342 544 644 846> 924 100<190 998>
VStem: 90 100<-474 924> 544 100<-103 99 199 401> 998 100<-474 924>
CounterMasks: 1 38
LayerCount: 2
Back
Fore
SplineSet
190 -474 m 1
 90 -474 l 1
 90 25 90 525 90 1024 c 1
 1098 1024 l 1
 1098 525 1098 25 1098 -474 c 1
 998 -474 l 1
 998 924 l 1
 190 924 l 1
 190 -474 l 1
544 401 m 1
 644 401 l 1
 644 199 l 1
 846 199 l 1
 846 99 l 1
 644 99 l 1
 644 -103 l 1
 544 -103 l 1
 544 99 l 1
 342 99 l 1
 342 199 l 1
 544 199 l 1
 544 401 l 1
EndSplineSet
EndChar

StartChar: sym09A
Encoding: 42 -1 42
Width: 900
Flags: W
HStem: -260 100<190 710> 315 100<270 400 500 630> 525 20G<400 500>
VStem: 90 100<-160 810> 400 100<185 315 415 545> 710 100<-160 810>
CounterMasks: 1 1c
LayerCount: 2
Back
Fore
SplineSet
90 810 m 1
 190 810 l 1
 190 -160 l 1
 710 -160 l 1
 710 810 l 1
 810 810 l 1
 810 453 810 97 810 -260 c 1
 90 -260 l 1
 90 97 90 453 90 810 c 1
400 545 m 1
 500 545 l 1
 500 415 l 1
 630 415 l 1
 630 315 l 1
 500 315 l 1
 500 185 l 1
 400 185 l 1
 400 315 l 1
 270 315 l 1
 270 415 l 1
 400 415 l 1
 400 545 l 1
EndSplineSet
EndChar

StartChar: sym09A.disp
Encoding: 43 -1 43
Width: 1188
Flags: W
HStem: -474 100<190 998> 351 100<342 544 644 846>
VStem: 90 100<-374 1024> 544 100<149 351 451 653> 998 100<-374 1024>
CounterMasks: 1 38
LayerCount: 2
Back
Fore
SplineSet
90 1024 m 1
 190 1024 l 1
 190 -374 l 1
 998 -374 l 1
 998 1024 l 1
 1098 1024 l 1
 1098 525 1098 25 1098 -474 c 1
 90 -474 l 1
 90 25 90 525 90 1024 c 1
544 653 m 1
 644 653 l 1
 644 451 l 1
 846 451 l 1
 846 351 l 1
 644 351 l 1
 644 149 l 1
 544 149 l 1
 544 351 l 1
 342 351 l 1
 342 451 l 1
 544 451 l 1
 544 653 l 1
EndSplineSet
EndChar

StartChar: uni2A01
Encoding: 44 10753 44
Width: 1250
Flags: W
HStem: -260 103<481.984 575 675 768.016> 225 100<193 575 675 1057> 707 103<481.984 575 675 768.016>
VStem: 90 103<131.984 225 325 418.016> 575 100<-157 225 325 707> 1057 103<131.984 225 325 418.016>
CounterMasks: 1 fc
LayerCount: 2
Back
Fore
SplineSet
675 325 m 1
 1057 325 l 1
 1046 422 1002 513 933 583 c 0
 863 652 772 696 675 707 c 1
 675 325 l 1
575 325 m 1
 575 707 l 1
 478 696 387 652 317 583 c 0
 248 513 204 422 193 325 c 1
 575 325 l 1
675 225 m 1
 675 -157 l 1
 772 -146 863 -102 933 -33 c 0
 1002 37 1046 128 1057 225 c 1
 675 225 l 1
575 225 m 1
 193 225 l 1
 204 128 248 37 317 -33 c 0
 387 -102 478 -146 575 -157 c 1
 575 225 l 1
1160 275 m 0
 1160 133 1104 -3 1003 -103 c 0
 903 -204 767 -260 625 -260 c 0
 483 -260 347 -204 247 -103 c 0
 146 -3 90 133 90 275 c 0
 90 417 146 553 247 653 c 0
 347 754 483 810 625 810 c 0
 767 810 903 754 1003 653 c 0
 1104 553 1160 417 1160 275 c 0
EndSplineSet
EndChar

StartChar: uni2A01.disp
Encoding: 45 -1 45
Width: 1678
Flags: W
HStem: -474 102<668.674 789 889 1009.33> 225 100<192 789 889 1486> 922 102<668.674 789 889 1009.33>
VStem: 90 102<104.674 225 325 445.326> 789 100<-372 225 325 922> 1486 102<104.674 225 325 445.326>
CounterMasks: 1 fc
LayerCount: 2
Back
Fore
SplineSet
889 325 m 1
 1486 325 l 1
 1474 479 1408 624 1298 734 c 0
 1188 844 1043 910 889 922 c 1
 889 325 l 1
789 325 m 1
 789 922 l 1
 635 910 490 844 380 734 c 0
 270 624 204 479 192 325 c 1
 789 325 l 1
889 225 m 1
 889 -372 l 1
 1043 -360 1188 -294 1298 -184 c 0
 1408 -74 1474 71 1486 225 c 1
 889 225 l 1
789 225 m 1
 192 225 l 1
 204 71 270 -74 380 -184 c 0
 490 -294 635 -360 789 -372 c 1
 789 225 l 1
1588 275 m 0
 1588 76 1509 -114 1369 -255 c 0
 1228 -395 1038 -474 839 -474 c 0
 640 -474 450 -395 309 -255 c 0
 169 -114 90 76 90 275 c 0
 90 474 169 664 309 805 c 0
 450 945 640 1024 839 1024 c 0
 1038 1024 1228 945 1369 805 c 0
 1509 664 1588 474 1588 275 c 0
EndSplineSet
EndChar

StartChar: uni2A02
Encoding: 46 10754 46
Width: 1250
Flags: W
HStem: -260 100<492.403 757.597> 710 100<492.403 757.597>
VStem: 90 100<142.403 407.597> 1060 100<142.403 407.597>
LayerCount: 2
Back
Fore
SplineSet
625 345 m 1
 896 616 l 1
 819 676 723 710 625 710 c 0
 527 710 431 676 354 616 c 1
 625 345 l 1
555 275 m 1
 284 546 l 1
 224 469 190 373 190 275 c 0
 190 177 224 81 284 4 c 1
 555 275 l 1
695 275 m 1
 966 4 l 1
 1026 81 1060 177 1060 275 c 0
 1060 373 1026 469 966 546 c 1
 695 275 l 1
625 205 m 1
 354 -66 l 1
 431 -126 527 -160 625 -160 c 0
 723 -160 819 -126 896 -66 c 1
 625 205 l 1
1160 275 m 0
 1160 133 1104 -3 1003 -103 c 0
 903 -204 767 -260 625 -260 c 0
 483 -260 347 -204 247 -103 c 0
 146 -3 90 133 90 275 c 0
 90 417 146 553 247 653 c 0
 347 754 483 810 625 810 c 0
 767 810 903 754 1003 653 c 0
 1104 553 1160 417 1160 275 c 0
EndSplineSet
EndChar

StartChar: uni2A02.disp
Encoding: 47 -1 47
Width: 1678
Flags: W
HStem: -474 100<674.623 1003.38> 924 100<674.623 1003.38>
VStem: 90 100<110.623 439.377> 1488 100<110.623 439.377>
LayerCount: 2
Back
Fore
SplineSet
839 346 m 1
 1261 768 l 1
 1144 868 994 924 839 924 c 0
 684 924 534 868 417 768 c 1
 839 346 l 1
768 275 m 1
 346 697 l 1
 246 580 190 430 190 275 c 0
 190 120 246 -30 346 -147 c 1
 768 275 l 1
910 275 m 1
 1332 -147 l 1
 1432 -30 1488 120 1488 275 c 0
 1488 430 1432 580 1332 697 c 1
 910 275 l 1
839 204 m 1
 417 -218 l 1
 534 -318 684 -374 839 -374 c 0
 994 -374 1144 -318 1261 -218 c 1
 839 204 l 1
1588 275 m 0
 1588 76 1509 -114 1369 -255 c 0
 1228 -395 1038 -474 839 -474 c 0
 640 -474 450 -395 309 -255 c 0
 169 -114 90 76 90 275 c 0
 90 474 169 664 309 805 c 0
 450 945 640 1024 839 1024 c 0
 1038 1024 1228 945 1369 805 c 0
 1509 664 1588 474 1588 275 c 0
EndSplineSet
EndChar

StartChar: uni2A00
Encoding: 48 10752 48
Width: 1250
Flags: W
HStem: -260 100<494.052 755.948> 169 212<583.05 666.95> 710 100<494.052 755.948>
VStem: 90 100<144.052 405.948> 519 212<233.05 316.95> 1060 100<144.052 405.948>
CounterMasks: 1 fc
LayerCount: 2
Back
Fore
SplineSet
1160 275 m 0
 1160 133 1104 -3 1003 -103 c 0
 903 -204 767 -260 625 -260 c 0
 483 -260 347 -204 247 -103 c 0
 146 -3 90 133 90 275 c 0
 90 417 146 553 247 653 c 0
 347 754 483 810 625 810 c 0
 767 810 903 754 1003 653 c 0
 1104 553 1160 417 1160 275 c 0
1060 275 m 0
 1060 390 1014 501 933 583 c 0
 851 664 740 710 625 710 c 0
 510 710 399 664 317 583 c 0
 236 501 190 390 190 275 c 0
 190 160 236 49 317 -33 c 0
 399 -114 510 -160 625 -160 c 0
 740 -160 851 -114 933 -33 c 0
 1014 49 1060 160 1060 275 c 0
731 275 m 0
 731 254 708 230 689 211 c 0
 670 192 646 169 625 169 c 0
 604 169 580 192 561 211 c 0
 542 230 519 254 519 275 c 0
 519 296 542 320 561 339 c 0
 580 358 604 381 625 381 c 0
 646 381 670 358 689 339 c 0
 708 320 731 296 731 275 c 0
EndSplineSet
EndChar

StartChar: uni2A00.disp
Encoding: 49 -1 49
Width: 1678
Flags: W
HStem: -474 100<673.67 1004.33> 169 212<797.05 880.95> 924 100<673.67 1004.33>
VStem: 90 100<109.67 440.33> 733 212<233.05 316.95> 1488 100<109.67 440.33>
CounterMasks: 1 fc
LayerCount: 2
Back
Fore
SplineSet
1588 275 m 0
 1588 76 1509 -114 1369 -255 c 0
 1228 -395 1038 -474 839 -474 c 0
 640 -474 450 -395 309 -255 c 0
 169 -114 90 76 90 275 c 0
 90 474 169 664 309 805 c 0
 450 945 640 1024 839 1024 c 0
 1038 1024 1228 945 1369 805 c 0
 1509 664 1588 474 1588 275 c 0
1488 275 m 0
 1488 447 1420 612 1298 734 c 0
 1176 856 1011 924 839 924 c 0
 667 924 502 856 380 734 c 0
 258 612 190 447 190 275 c 0
 190 103 258 -62 380 -184 c 0
 502 -306 667 -374 839 -374 c 0
 1011 -374 1176 -306 1298 -184 c 0
 1420 -62 1488 103 1488 275 c 0
945 275 m 0
 945 254 922 230 903 211 c 0
 884 192 860 169 839 169 c 0
 818 169 794 192 775 211 c 0
 756 230 733 254 733 275 c 0
 733 296 756 320 775 339 c 0
 794 358 818 381 839 381 c 0
 860 381 884 358 903 339 c 0
 922 320 945 296 945 275 c 0
EndSplineSet
EndChar

StartChar: sym09B
Encoding: 50 -1 50
Width: 1250
Flags: W
HStem: -260 105<475.623 560 690 774.377> 705 105<475.623 560 690 774.377>
VStem: 90 100<138.968 411.032> 560 130<-155 42.1667 507.833 705> 572 106<-14.1667 183 367 564.167> 1060 100<138.968 411.032>
LayerCount: 2
Back
Fore
SplineSet
678 367 m 1xec
 966 546 l 1
 901 628 798 689 690 705 c 1xf4
 678 367 l 1xec
572 367 m 1xec
 560 705 l 1xf4
 452 689 349 628 284 546 c 1
 572 367 l 1xec
519 275 m 1
 220 434 l 1
 200 384 190 330 190 275 c 0
 190 220 200 166 220 116 c 1
 519 275 l 1
572 183 m 1xec
 284 4 l 1
 349 -78 452 -139 560 -155 c 1xf4
 572 183 l 1xec
678 183 m 1xec
 690 -155 l 1xf4
 798 -139 901 -78 966 4 c 1
 678 183 l 1xec
731 275 m 1
 1030 116 l 1
 1050 166 1060 220 1060 275 c 0
 1060 330 1050 384 1030 434 c 1
 731 275 l 1
1160 275 m 0
 1160 133 1104 -3 1003 -103 c 0
 903 -204 767 -260 625 -260 c 0
 483 -260 347 -204 247 -103 c 0
 146 -3 90 133 90 275 c 0
 90 417 146 553 247 653 c 0
 347 754 483 810 625 810 c 0
 767 810 903 754 1003 653 c 0
 1104 553 1160 417 1160 275 c 0
EndSplineSet
EndChar

StartChar: sym09B.disp
Encoding: 51 -1 51
Width: 1678
Flags: W
HStem: -474 103<665.192 773 905 1012.81> 921 103<665.192 773 905 1012.81>
VStem: 90 100<109.675 440.325> 773 132<-371 -93 643 921> 787 104<-93 185 365 643> 1488 100<109.675 440.325>
LayerCount: 2
Back
Fore
SplineSet
891 365 m 1xec
 1366 654 l 1
 1346 682 1323 709 1298 734 c 0
 1192 840 1053 906 905 921 c 1xf4
 891 365 l 1xec
787 365 m 1xec
 773 921 l 1xf4
 625 906 486 840 380 734 c 0
 355 709 332 682 312 654 c 1
 787 365 l 1xec
735 275 m 1
 247 541 l 1
 210 458 190 368 190 275 c 0
 190 182 210 92 247 9 c 1
 735 275 l 1
787 185 m 1xec
 312 -104 l 1
 332 -132 355 -159 380 -184 c 0
 486 -290 625 -356 773 -371 c 1xf4
 787 185 l 1xec
891 185 m 1xec
 905 -371 l 1xf4
 1053 -356 1192 -290 1298 -184 c 0
 1323 -159 1346 -132 1366 -104 c 1
 891 185 l 1xec
943 275 m 1
 1431 9 l 1
 1468 92 1488 182 1488 275 c 0
 1488 368 1468 458 1431 541 c 1
 943 275 l 1
1588 275 m 0
 1588 76 1509 -114 1369 -255 c 0
 1228 -395 1038 -474 839 -474 c 0
 640 -474 450 -395 309 -255 c 0
 169 -114 90 76 90 275 c 0
 90 474 169 664 309 805 c 0
 450 945 640 1024 839 1024 c 0
 1038 1024 1228 945 1369 805 c 0
 1509 664 1588 474 1588 275 c 0
EndSplineSet
EndChar

StartChar: product
Encoding: 52 8719 52
Width: 1080
Flags: W
HStem: -260 62<101 160.625 390.375 450 630 689.625 919.375 979> 710 100<344 736> 748 62<93 161.929 918.071 987>
VStem: 207 137<-164.533 709.29> 736 137<-164.533 709.29>
LayerCount: 2
Back
Fore
SplineSet
101 -260 m 1xd8
 90 -198 l 1
 140 -185 207 -167 207 -139 c 2
 207 689 l 2
 207 717 142 735 93 748 c 1
 90 810 l 1
 990 810 l 1
 987 748 l 1xb8
 938 735 873 717 873 689 c 2
 873 -139 l 2
 873 -167 940 -185 990 -198 c 1
 979 -260 l 1
 630 -260 l 1
 619 -198 l 1
 669 -185 736 -167 736 -139 c 2
 736 710 l 1
 344 710 l 1
 344 -139 l 2
 344 -167 411 -185 461 -198 c 1
 450 -260 l 1
 101 -260 l 1xd8
EndSplineSet
EndChar

StartChar: product.disp
Encoding: 53 -1 53
Width: 1440
Flags: W
HStem: -474 67<102 161.667 478.616 539 901 961.667 1278.33 1338> 915 109<395 1045> 956 68<94 167.248 1272.75 1346>
VStem: 245 150<-357.699 909.062> 1045 150<-357.699 909.062>
LayerCount: 2
Back
Fore
SplineSet
102 -474 m 1xd8
 90 -407 l 1
 156 -389 245 -365 245 -328 c 2
 245 878 l 2
 245 915 159 939 94 956 c 1
 90 1024 l 1
 1350 1024 l 1
 1346 956 l 1xb8
 1281 939 1195 915 1195 878 c 2
 1195 -328 l 2
 1195 -365 1284 -389 1350 -407 c 1
 1338 -474 l 1
 901 -474 l 1
 890 -407 l 1
 956 -389 1045 -365 1045 -328 c 2
 1045 915 l 1
 395 915 l 1
 395 -328 l 2
 395 -365 484 -389 551 -407 c 1
 539 -474 l 1
 102 -474 l 1xd8
EndSplineSet
EndChar

StartChar: product.sf
Encoding: 54 -1 54
Width: 1080
Flags: W
HStem: 677 133<90 212 345 735 868 990>
VStem: 212 133<-260 677> 735 133<-260 677>
LayerCount: 2
Back
Fore
SplineSet
212 -260 m 1
 212 677 l 1
 90 677 l 1
 90 810 l 1
 990 810 l 1
 990 677 l 1
 868 677 l 1
 868 -260 l 1
 735 -260 l 1
 735 677 l 1
 345 677 l 1
 345 -260 l 1
 212 -260 l 1
EndSplineSet
EndChar

StartChar: product.sf.disp
Encoding: 55 -1 55
Width: 1440
Flags: W
HStem: 879 145<90 244 390 1051 1196 1350>
VStem: 244 146<-474 879> 1051 145<-474 879>
LayerCount: 2
Back
Fore
SplineSet
244 -474 m 1
 244 879 l 1
 90 879 l 1
 90 1024 l 1
 1350 1024 l 1
 1350 879 l 1
 1196 879 l 1
 1196 -474 l 1
 1051 -474 l 1
 1051 879 l 1
 390 879 l 1
 390 -474 l 1
 244 -474 l 1
EndSplineSet
EndChar

StartChar: uni2210
Encoding: 56 8720 56
Width: 1080
Flags: W
HStem: -260 100<344 736> -260 62<93 161.929 918.071 987> 748 62<101 160.625 390.375 450 630 689.625 919.375 979>
VStem: 207 137<-159.29 714.533> 736 137<-159.29 714.533>
LayerCount: 2
Back
Fore
SplineSet
101 810 m 1x78
 450 810 l 1
 461 748 l 1
 411 735 344 717 344 689 c 2
 344 -160 l 1
 736 -160 l 1xb8
 736 689 l 2
 736 717 669 735 619 748 c 1
 630 810 l 1
 979 810 l 1
 990 748 l 1
 940 735 873 717 873 689 c 2
 873 -139 l 2
 873 -167 938 -185 987 -198 c 1
 990 -260 l 1
 90 -260 l 1
 93 -198 l 1
 142 -185 207 -167 207 -139 c 2
 207 689 l 2
 207 717 140 735 90 748 c 1
 101 810 l 1x78
EndSplineSet
EndChar

StartChar: uni2210.disp
Encoding: 57 -1 57
Width: 1440
Flags: W
HStem: -474 109<395 1045> -474 68<94 167.248 1272.75 1346> 957 67<102 161.667 478.616 539 901 961.667 1278.33 1338>
VStem: 245 150<-359.062 907.699> 1045 150<-359.062 907.699>
LayerCount: 2
Back
Fore
SplineSet
102 1024 m 1x78
 539 1024 l 1
 551 957 l 1
 484 939 395 915 395 878 c 2
 395 -365 l 1
 1045 -365 l 1xb8
 1045 878 l 2
 1045 915 956 939 890 957 c 1
 901 1024 l 1
 1338 1024 l 1
 1350 957 l 1
 1284 939 1195 915 1195 878 c 2
 1195 -328 l 2
 1195 -365 1281 -389 1346 -406 c 1
 1350 -474 l 1
 90 -474 l 1
 94 -406 l 1
 159 -389 245 -365 245 -328 c 2
 245 878 l 2
 245 915 156 939 90 957 c 1
 102 1024 l 1x78
EndSplineSet
EndChar

StartChar: uni2210.sf
Encoding: 58 -1 58
Width: 1080
Flags: W
HStem: -260 133<90 212 345 735 868 990>
VStem: 212 133<-127 810> 735 133<-127 810>
LayerCount: 2
Back
Fore
SplineSet
212 810 m 1
 345 810 l 1
 345 -127 l 1
 735 -127 l 1
 735 810 l 1
 868 810 l 1
 868 -127 l 1
 990 -127 l 1
 990 -260 l 1
 90 -260 l 1
 90 -127 l 1
 212 -127 l 1
 212 810 l 1
EndSplineSet
EndChar

StartChar: uni2210.sf.disp
Encoding: 59 -1 59
Width: 1440
Flags: W
HStem: -474 145<90 244 390 1051 1196 1350>
VStem: 244 146<-329 1024> 1051 145<-329 1024>
LayerCount: 2
Back
Fore
SplineSet
244 1024 m 1
 390 1024 l 1
 390 -329 l 1
 1051 -329 l 1
 1051 1024 l 1
 1196 1024 l 1
 1196 -329 l 1
 1350 -329 l 1
 1350 -474 l 1
 90 -474 l 1
 90 -329 l 1
 244 -329 l 1
 244 1024 l 1
EndSplineSet
EndChar

StartChar: summation
Encoding: 60 8721 60
Width: 900
Flags: W
HStem: 718 92<267 687.031>
VStem: 760 50<604 644.938>
LayerCount: 2
Back
Fore
SplineSet
113 -260 m 1
 90 -160 l 1
 364 260 l 1
 90 698 l 1
 116 810 l 1
 810 810 l 1
 810 604 l 1
 760 604 l 1
 736 661 691 712 630 713 c 2
 267 718 l 1
 536 290 l 1
 241 -160 l 1
 606 -132 l 2
 683 -126 769 -118 786 -48 c 1
 834 -59 l 1
 778 -260 l 1
 113 -260 l 1
EndSplineSet
EndChar

StartChar: summation.disp
Encoding: 61 -1 61
Width: 1188
Flags: W
HStem: -474 140<691.742 991.312> 924 100<281 933.312>
VStem: 1044 54<800 836.139>
LayerCount: 2
Back
Fore
SplineSet
115 -474 m 1
 90 -365 l 1
 502 259 l 1
 90 903 l 1
 118 1024 l 1
 1098 1024 l 1
 1098 800 l 1
 1044 800 l 1
 1011 876 930 918 846 919 c 2
 281 924 l 1
 686 291 l 1
 252 -365 l 1
 820 -334 l 2
 925 -329 1053 -322 1072 -244 c 1
 1125 -256 l 1
 1063 -474 l 1
 115 -474 l 1
EndSplineSet
EndChar

StartChar: summation.sf
Encoding: 62 -1 62
Width: 900
Flags: W
HStem: -260 138<264 810> 673 137<264 810>
LayerCount: 2
Back
Fore
SplineSet
90 -260 m 1
 90 -122 l 1
 363 275 l 1
 90 673 l 1
 90 810 l 1
 810 810 l 1
 810 673 l 1
 264 673 l 1
 537 275 l 1
 264 -122 l 1
 810 -122 l 1
 810 -260 l 1
 90 -260 l 1
EndSplineSet
EndChar

StartChar: summation.sf.disp
Encoding: 63 -1 63
Width: 1188
Flags: W
HStem: -474 150<277 1098> 874 150<277 1098>
LayerCount: 2
Back
Fore
SplineSet
90 -474 m 1
 90 -324 l 1
 501 275 l 1
 90 874 l 1
 90 1024 l 1
 1098 1024 l 1
 1098 874 l 1
 277 874 l 1
 687 275 l 1
 277 -324 l 1
 1098 -324 l 1
 1098 -474 l 1
 90 -474 l 1
EndSplineSet
EndChar

StartChar: uni2A0A
Encoding: 64 10762 64
Width: 900
Flags: W
HStem: 45 100<441.377 519.716> 718 92<267 687.031>
VStem: 220 100<216.224 317.372> 580 100<205.275 345.306> 760 50<604 644.938>
LayerCount: 2
Back
Fore
SplineSet
328 318 m 1
 323 304 320 290 320 275 c 0
 320 254 326 233 335 215 c 1
 364 260 l 1
 328 318 l 1
680 275 m 0
 680 214 656 155 613 112 c 0
 570 69 511 45 450 45 c 0
 427 45 404 48 382 55 c 1
 241 -160 l 1
 606 -132 l 2
 683 -126 769 -118 786 -48 c 1
 834 -59 l 1
 778 -260 l 1
 113 -260 l 1
 90 -160 l 1
 276 124 l 1
 240 166 220 220 220 275 c 0
 220 326 237 375 267 415 c 1
 90 698 l 1
 116 810 l 1
 810 810 l 1
 810 604 l 1
 760 604 l 1
 736 661 691 712 630 713 c 2
 267 718 l 1
 404 500 l 1
 419 503 434 505 450 505 c 0
 511 505 570 481 613 438 c 0
 656 395 680 336 680 275 c 0
450 145 m 0
 521 145 580 204 580 275 c 0
 580 342 527 397 464 404 c 1
 536 290 l 1
 441 145 l 1
 444 145 447 145 450 145 c 0
EndSplineSet
EndChar

StartChar: uni2A0A.disp
Encoding: 65 -1 65
Width: 1188
Flags: W
HStem: -474 140<691.742 991.312> -78 109<522.554 693.115> 519 109<545.192 693.115> 924 100<281 933.312>
VStem: 241 109<174.211 374.446> 838 109<175.885 374.115> 1044 54<800 836.139>
LayerCount: 2
Back
Fore
SplineSet
399 421 m 1
 368 380 350 328 350 275 c 0
 350 217 370 160 408 117 c 1
 502 259 l 1
 399 421 l 1
347 24 m 1
 280 90 241 180 241 275 c 0
 241 365 276 451 337 516 c 1
 90 903 l 1
 118 1024 l 1
 1098 1024 l 1
 1098 800 l 1
 1044 800 l 1
 1011 876 930 918 846 919 c 2
 281 924 l 1
 482 610 l 1
 518 622 555 628 594 628 c 0
 688 628 777 590 843 524 c 0
 909 458 947 369 947 275 c 0
 947 181 909 92 843 26 c 0
 777 -40 688 -78 594 -78 c 0
 547 -78 502 -69 460 -51 c 1
 252 -365 l 1
 820 -334 l 2
 925 -329 1053 -322 1072 -244 c 1
 1125 -256 l 1
 1063 -474 l 1
 115 -474 l 1
 90 -365 l 1
 347 24 l 1
594 31 m 0
 727 31 838 142 838 275 c 0
 838 408 727 519 594 519 c 0
 577 519 560 517 544 514 c 1
 686 291 l 1
 521 42 l 1
 544 35 569 31 594 31 c 0
EndSplineSet
EndChar

StartChar: uni2A0A.sf
Encoding: 66 -1 66
Width: 900
Flags: W
HStem: -260 138<264 810> 45 100<448.969 519.716> 405 100<448.969 519.716> 673 137<264 810>
VStem: 220 100<227.346 322.654> 580 100<205.275 344.725>
LayerCount: 2
Back
Fore
SplineSet
330 324 m 1
 324 309 320 292 320 275 c 0
 320 258 324 241 330 226 c 1
 363 275 l 1
 330 324 l 1
680 275 m 0
 680 214 656 155 613 112 c 0
 570 69 511 45 450 45 c 0
 428 45 406 48 385 54 c 1
 264 -122 l 1
 810 -122 l 1
 810 -260 l 1
 90 -260 l 1
 90 -122 l 1
 267 135 l 1
 237 175 220 224 220 275 c 0
 220 326 237 375 267 415 c 1
 90 673 l 1
 90 810 l 1
 810 810 l 1
 810 673 l 1
 264 673 l 1
 386 496 l 1
 407 502 428 505 450 505 c 0
 511 505 570 481 613 438 c 0
 656 395 680 336 680 275 c 0
450 145 m 0
 521 145 580 204 580 275 c 0
 580 346 521 405 450 405 c 0
 449 405 449 405 448 405 c 2
 537 275 l 1
 448 145 l 2
 449 145 449 145 450 145 c 0
EndSplineSet
EndChar

StartChar: uni2A0A.sf.disp
Encoding: 67 -1 67
Width: 1188
Flags: W
HStem: -474 150<277 1098> -78 109<528.354 693.115> 519 109<528.354 693.115> 874 150<277 1098>
VStem: 241 109<176.57 373.43> 838 109<175.885 374.115>
LayerCount: 2
Back
Fore
SplineSet
400 422 m 1
 368 380 350 329 350 275 c 0
 350 221 368 170 400 128 c 1
 501 275 l 1
 400 422 l 1
947 275 m 0
 947 181 909 92 843 26 c 0
 777 -40 688 -78 594 -78 c 0
 548 -78 504 -69 463 -52 c 1
 277 -324 l 1
 1098 -324 l 1
 1098 -474 l 1
 90 -474 l 1
 90 -324 l 1
 336 35 l 1
 275 100 241 185 241 275 c 0
 241 365 275 450 336 515 c 1
 90 874 l 1
 90 1024 l 1
 1098 1024 l 1
 1098 874 l 1
 277 874 l 1
 463 602 l 1
 504 619 548 628 594 628 c 0
 688 628 777 590 843 524 c 0
 909 458 947 369 947 275 c 0
594 31 m 0
 727 31 838 142 838 275 c 0
 838 408 727 519 594 519 c 0
 571 519 549 515 527 509 c 1
 687 275 l 1
 527 41 l 1
 549 35 571 31 594 31 c 0
EndSplineSet
EndChar

StartChar: integral
Encoding: 68 8747 68
Width: 495
Flags: W
HStem: -328 111<117 196.185> 761 21G<474.5 488.321> 770 108<393.947 482.203>
VStem: 233 134<-179.922 743.296>
LayerCount: 2
Back
Fore
SplineSet
512 870 m 1xb0
 483 761 l 1xd0
 466 767 449 770 432 770 c 0
 379 770 367 703 367 642 c 2
 367 -85 l 2
 367 -220 258 -328 124 -328 c 0
 122 -328 119 -328 117 -328 c 1
 102 -217 l 1
 154 -217 l 2
 210 -217 233 -150 233 -85 c 2
 233 642 l 2
 233 770 330 878 456 878 c 0
 458 878 459 878 461 878 c 0
 478 878 495 875 512 870 c 1xb0
EndSplineSet
EndChar

StartChar: integral.disp
Encoding: 69 -1 69
Width: 713
Flags: W
HStem: -811 129<127 265.119> 1235 126<652.269 812.203>
VStem: 391 154<-528.328 1089.22>
LayerCount: 2
Back
Fore
SplineSet
843 1351 m 1
 809 1225 l 1
 781 1232 753 1235 724 1235 c 0
 603 1235 545 1096 545 958 c 2
 545 -400 l 2
 545 -628 361 -811 134 -811 c 0
 132 -811 129 -811 127 -811 c 1
 109 -682 l 1
 195 -682 l 2
 322 -682 391 -542 391 -400 c 2
 391 958 l 2
 391 1172 549 1356 758 1361 c 0
 787 1361 815 1358 843 1351 c 1
EndSplineSet
EndChar

StartChar: uni222C
Encoding: 70 8748 70
Width: 795
Flags: W
HStem: -328 111<117 196.185 417 496.185> 761 21G<474.5 488.321 774.5 788.321> 770 108<393.947 482.203 693.947 782.203>
VStem: 233 134<-179.922 743.296> 533 134<-179.922 743.296>
LayerCount: 2
Back
Fore
SplineSet
512 870 m 1xb8
 483 761 l 1xd8
 466 767 449 770 432 770 c 0
 379 770 367 703 367 642 c 2
 367 -85 l 2
 367 -220 258 -328 124 -328 c 0
 122 -328 119 -328 117 -328 c 1
 102 -217 l 1
 154 -217 l 2
 210 -217 233 -150 233 -85 c 2
 233 642 l 2
 233 770 330 878 456 878 c 0
 458 878 459 878 461 878 c 0
 478 878 495 875 512 870 c 1xb8
812 870 m 1
 783 761 l 1xd8
 766 767 749 770 732 770 c 0
 679 770 667 703 667 642 c 2
 667 -85 l 2
 667 -220 558 -328 424 -328 c 0
 422 -328 419 -328 417 -328 c 1
 402 -217 l 1
 454 -217 l 2
 510 -217 533 -150 533 -85 c 2
 533 642 l 2
 533 770 630 878 756 878 c 0
 758 878 759 878 761 878 c 0xb8
 778 878 795 875 812 870 c 1
EndSplineSet
EndChar

StartChar: uni222C.disp
Encoding: 71 -1 71
Width: 1253
Flags: W
HStem: -811 129<127 265.119 667 805.119> 1225 126<759.359 810.889 1299.36 1350.89> 1235 126<652.269 812.203 1192.27 1352.2>
VStem: 391 154<-528.328 1089.22> 931 154<-528.328 1089.22>
LayerCount: 2
Back
Fore
SplineSet
843 1351 m 1xd8
 809 1225 l 1xd8
 781 1232 753 1235 724 1235 c 0
 603 1235 545 1096 545 958 c 2
 545 -400 l 2
 545 -628 361 -811 134 -811 c 0
 132 -811 129 -811 127 -811 c 1
 109 -682 l 1
 195 -682 l 2
 322 -682 391 -542 391 -400 c 2
 391 958 l 2
 391 1172 549 1356 758 1361 c 0xb8
 787 1361 815 1358 843 1351 c 1xd8
1383 1351 m 1
 1349 1225 l 1xd8
 1321 1232 1293 1235 1264 1235 c 0
 1143 1235 1085 1096 1085 958 c 2
 1085 -400 l 2
 1085 -628 901 -811 674 -811 c 0
 672 -811 669 -811 667 -811 c 1
 649 -682 l 1
 735 -682 l 2
 862 -682 931 -542 931 -400 c 2
 931 958 l 2
 931 1172 1089 1356 1298 1361 c 0xb8
 1327 1361 1355 1358 1383 1351 c 1
EndSplineSet
EndChar

StartChar: uni222D
Encoding: 72 8749 72
Width: 1095
Flags: W
HStem: -328 111<117 196.185 417 496.185 717 796.185> 761 21G<474.5 488.321 774.5 788.321 1074.5 1088.32> 770 108<393.947 482.203 693.947 782.203 993.947 1082.2>
VStem: 233 134<-179.922 743.296> 533 134<-179.922 743.296> 833 134<-179.922 743.296>
CounterMasks: 1 1c
LayerCount: 2
Back
Fore
SplineSet
512 870 m 1xbc
 483 761 l 1xdc
 466 767 449 770 432 770 c 0
 379 770 367 703 367 642 c 2
 367 -85 l 2
 367 -220 258 -328 124 -328 c 0
 122 -328 119 -328 117 -328 c 1
 102 -217 l 1
 154 -217 l 2
 210 -217 233 -150 233 -85 c 2
 233 642 l 2
 233 770 330 878 456 878 c 0
 458 878 459 878 461 878 c 0
 478 878 495 875 512 870 c 1xbc
812 870 m 1
 783 761 l 1xdc
 766 767 749 770 732 770 c 0
 679 770 667 703 667 642 c 2
 667 -85 l 2
 667 -220 558 -328 424 -328 c 0
 422 -328 419 -328 417 -328 c 1
 402 -217 l 1
 454 -217 l 2
 510 -217 533 -150 533 -85 c 2
 533 642 l 2
 533 770 630 878 756 878 c 0
 758 878 759 878 761 878 c 0xbc
 778 878 795 875 812 870 c 1
1112 870 m 1
 1083 761 l 1xdc
 1066 767 1049 770 1032 770 c 0
 979 770 967 703 967 642 c 2
 967 -85 l 2
 967 -220 858 -328 724 -328 c 0
 722 -328 719 -328 717 -328 c 1
 702 -217 l 1
 754 -217 l 2
 810 -217 833 -150 833 -85 c 2
 833 642 l 2
 833 770 930 878 1056 878 c 0
 1058 878 1059 878 1061 878 c 0xbc
 1078 878 1095 875 1112 870 c 1
EndSplineSet
EndChar

StartChar: uni222D.disp
Encoding: 73 -1 73
Width: 1793
Flags: W
HStem: -811 129<127 265.119 667 805.119 1207 1345.12> 1225 126<759.359 810.889 1299.36 1350.89 1839.36 1890.89> 1235 126<652.269 812.203 1192.27 1352.2 1732.27 1892.2>
VStem: 391 154<-528.328 1089.22> 931 154<-528.328 1089.22> 1471 154<-528.328 1089.22>
CounterMasks: 1 1c
LayerCount: 2
Back
Fore
SplineSet
843 1351 m 1xdc
 809 1225 l 1xdc
 781 1232 753 1235 724 1235 c 0
 603 1235 545 1096 545 958 c 2
 545 -400 l 2
 545 -628 361 -811 134 -811 c 0
 132 -811 129 -811 127 -811 c 1
 109 -682 l 1
 195 -682 l 2
 322 -682 391 -542 391 -400 c 2
 391 958 l 2
 391 1172 549 1356 758 1361 c 0xbc
 787 1361 815 1358 843 1351 c 1xdc
1383 1351 m 1
 1349 1225 l 1xdc
 1321 1232 1293 1235 1264 1235 c 0
 1143 1235 1085 1096 1085 958 c 2
 1085 -400 l 2
 1085 -628 901 -811 674 -811 c 0
 672 -811 669 -811 667 -811 c 1
 649 -682 l 1
 735 -682 l 2
 862 -682 931 -542 931 -400 c 2
 931 958 l 2
 931 1172 1089 1356 1298 1361 c 0xbc
 1327 1361 1355 1358 1383 1351 c 1
1923 1351 m 1
 1889 1225 l 1xdc
 1861 1232 1833 1235 1804 1235 c 0
 1683 1235 1625 1096 1625 958 c 2
 1625 -400 l 2
 1625 -628 1441 -811 1214 -811 c 0
 1212 -811 1209 -811 1207 -811 c 1
 1189 -682 l 1
 1275 -682 l 2
 1402 -682 1471 -542 1471 -400 c 2
 1471 958 l 2
 1471 1172 1629 1356 1838 1361 c 0xbc
 1867 1361 1895 1358 1923 1351 c 1
EndSplineSet
EndChar

StartChar: uni2A0C
Encoding: 74 10764 74
Width: 1395
Flags: W
HStem: -328 111<117 196.185 417 496.185 717 796.185 1017 1096.18> 761 21G<474.5 488.321 774.5 788.321 1074.5 1088.32 1374.5 1388.32> 770 108<393.947 482.203 693.947 782.203 993.947 1082.2 1293.95 1382.2>
VStem: 233 134<-179.922 743.296> 533 134<-179.922 743.296> 833 134<-179.922 743.296> 1133 134<-179.922 743.296>
LayerCount: 2
Back
Fore
SplineSet
512 870 m 1xbe
 483 761 l 1xde
 466 767 449 770 432 770 c 0
 379 770 367 703 367 642 c 2
 367 -85 l 2
 367 -220 258 -328 124 -328 c 0
 122 -328 119 -328 117 -328 c 1
 102 -217 l 1
 154 -217 l 2
 210 -217 233 -150 233 -85 c 2
 233 642 l 2
 233 770 330 878 456 878 c 0
 458 878 459 878 461 878 c 0
 478 878 495 875 512 870 c 1xbe
812 870 m 1
 783 761 l 1xde
 766 767 749 770 732 770 c 0
 679 770 667 703 667 642 c 2
 667 -85 l 2
 667 -220 558 -328 424 -328 c 0
 422 -328 419 -328 417 -328 c 1
 402 -217 l 1
 454 -217 l 2
 510 -217 533 -150 533 -85 c 2
 533 642 l 2
 533 770 630 878 756 878 c 0
 758 878 759 878 761 878 c 0xbe
 778 878 795 875 812 870 c 1
1112 870 m 1
 1083 761 l 1xde
 1066 767 1049 770 1032 770 c 0
 979 770 967 703 967 642 c 2
 967 -85 l 2
 967 -220 858 -328 724 -328 c 0
 722 -328 719 -328 717 -328 c 1
 702 -217 l 1
 754 -217 l 2
 810 -217 833 -150 833 -85 c 2
 833 642 l 2
 833 770 930 878 1056 878 c 0
 1058 878 1059 878 1061 878 c 0xbe
 1078 878 1095 875 1112 870 c 1
1412 870 m 1
 1383 761 l 1xde
 1366 767 1349 770 1332 770 c 0
 1279 770 1267 703 1267 642 c 2
 1267 -85 l 2
 1267 -220 1158 -328 1024 -328 c 0
 1022 -328 1019 -328 1017 -328 c 1
 1002 -217 l 1
 1054 -217 l 2
 1110 -217 1133 -150 1133 -85 c 2
 1133 642 l 2
 1133 770 1230 878 1356 878 c 0
 1358 878 1359 878 1361 878 c 0xbe
 1378 878 1395 875 1412 870 c 1
EndSplineSet
EndChar

StartChar: uni2A0C.disp
Encoding: 75 -1 75
Width: 2333
Flags: W
HStem: -811 129<127 265.119 667 805.119 1207 1345.12 1747 1885.12> 1225 126<759.359 810.889 1299.36 1350.89 1839.36 1890.89 2379.36 2430.89> 1235 126<652.269 812.203 1192.27 1352.2 1732.27 1892.2 2272.27 2432.2>
VStem: 391 154<-528.328 1089.22> 931 154<-528.328 1089.22> 1471 154<-528.328 1089.22> 2011 154<-528.328 1089.22>
LayerCount: 2
Back
Fore
SplineSet
843 1351 m 1xde
 809 1225 l 1xde
 781 1232 753 1235 724 1235 c 0
 603 1235 545 1096 545 958 c 2
 545 -400 l 2
 545 -628 361 -811 134 -811 c 0
 132 -811 129 -811 127 -811 c 1
 109 -682 l 1
 195 -682 l 2
 322 -682 391 -542 391 -400 c 2
 391 958 l 2
 391 1172 549 1356 758 1361 c 0xbe
 787 1361 815 1358 843 1351 c 1xde
1383 1351 m 1
 1349 1225 l 1xde
 1321 1232 1293 1235 1264 1235 c 0
 1143 1235 1085 1096 1085 958 c 2
 1085 -400 l 2
 1085 -628 901 -811 674 -811 c 0
 672 -811 669 -811 667 -811 c 1
 649 -682 l 1
 735 -682 l 2
 862 -682 931 -542 931 -400 c 2
 931 958 l 2
 931 1172 1089 1356 1298 1361 c 0xbe
 1327 1361 1355 1358 1383 1351 c 1
1923 1351 m 1
 1889 1225 l 1xde
 1861 1232 1833 1235 1804 1235 c 0
 1683 1235 1625 1096 1625 958 c 2
 1625 -400 l 2
 1625 -628 1441 -811 1214 -811 c 0
 1212 -811 1209 -811 1207 -811 c 1
 1189 -682 l 1
 1275 -682 l 2
 1402 -682 1471 -542 1471 -400 c 2
 1471 958 l 2
 1471 1172 1629 1356 1838 1361 c 0xbe
 1867 1361 1895 1358 1923 1351 c 1
2463 1351 m 1
 2429 1225 l 1xde
 2401 1232 2373 1235 2344 1235 c 0
 2223 1235 2165 1096 2165 958 c 2
 2165 -400 l 2
 2165 -628 1981 -811 1754 -811 c 0
 1752 -811 1749 -811 1747 -811 c 1
 1729 -682 l 1
 1815 -682 l 2
 1942 -682 2011 -542 2011 -400 c 2
 2011 958 l 2
 2011 1172 2169 1356 2378 1361 c 0xbe
 2407 1361 2435 1358 2463 1351 c 1
EndSplineSet
EndChar

StartChar: uni222B22EF222B
Encoding: 76 -1 76
Width: 1989
Flags: W
HStem: -328 111<117 196.185 1461 1540.18> 173 212<594.05 677.95 930.05 1013.95 1266.05 1349.95> 761 21G<474.5 488.321 1818.5 1832.32> 770 108<393.947 482.203 1737.95 1826.2>
VStem: 233 134<-179.922 743.296> 530 212<236.802 320.244> 866 212<236.802 320.244> 1202 212<236.802 320.244> 1577 134<-179.922 743.296>
LayerCount: 2
Back
Fore
SplineSet
512 870 m 1xdf80
 483 761 l 1xef80
 466 767 449 770 432 770 c 0
 379 770 367 703 367 642 c 2
 367 -85 l 2
 367 -220 258 -328 124 -328 c 0
 122 -328 119 -328 117 -328 c 1
 102 -217 l 1
 154 -217 l 2
 210 -217 233 -150 233 -85 c 2
 233 642 l 2
 233 770 330 878 456 878 c 0
 458 878 459 878 461 878 c 0
 478 878 495 875 512 870 c 1xdf80
1856 870 m 1
 1827 761 l 1xef80
 1810 767 1793 770 1776 770 c 0
 1723 770 1711 703 1711 642 c 2
 1711 -85 l 2
 1711 -220 1602 -328 1468 -328 c 0
 1466 -328 1463 -328 1461 -328 c 1
 1446 -217 l 1
 1498 -217 l 2
 1554 -217 1577 -150 1577 -85 c 2
 1577 642 l 2
 1577 770 1674 878 1800 878 c 0
 1802 878 1803 878 1805 878 c 0xdf80
 1822 878 1839 875 1856 870 c 1
742 279 m 0
 742 257 719 234 700 215 c 0
 681 196 657 173 636 173 c 0
 615 173 591 196 572 215 c 0
 553 234 530 257 530 279 c 0
 530 300 553 323 572 342 c 0
 591 361 615 385 636 385 c 0
 657 385 681 361 700 342 c 0
 719 323 742 300 742 279 c 0
1078 279 m 0
 1078 257 1055 234 1036 215 c 0
 1017 196 993 173 972 173 c 0
 951 173 927 196 908 215 c 0
 889 234 866 257 866 279 c 0
 866 300 889 323 908 342 c 0
 927 361 951 385 972 385 c 0
 993 385 1017 361 1036 342 c 0
 1055 323 1078 300 1078 279 c 0
1414 279 m 0
 1414 257 1391 234 1372 215 c 0
 1353 196 1329 173 1308 173 c 0
 1287 173 1263 196 1244 215 c 0
 1225 234 1202 257 1202 279 c 0
 1202 300 1225 323 1244 342 c 0
 1263 361 1287 385 1308 385 c 0
 1329 385 1353 361 1372 342 c 0
 1391 323 1414 300 1414 279 c 0
EndSplineSet
EndChar

StartChar: uni222B22EF222B.disp
Encoding: 77 -1 77
Width: 2447
Flags: W
HStem: -811 129<127 265.119 1591 1729.12> 173 212<792.05 875.95 1158.05 1241.95 1524.05 1607.95> 1225 126<759.359 810.889 2223.36 2274.89> 1235 126<652.269 812.203 2116.27 2276.2>
VStem: 391 154<-528.328 1089.22> 728 212<237.05 320.95> 1094 212<237.05 320.95> 1460 212<237.05 320.95> 1855 154<-528.328 1089.22>
LayerCount: 2
Back
Fore
SplineSet
843 1351 m 1xef80
 809 1225 l 1xef80
 781 1232 753 1235 724 1235 c 0
 603 1235 545 1096 545 958 c 2
 545 -400 l 2
 545 -628 361 -811 134 -811 c 0
 132 -811 129 -811 127 -811 c 1
 109 -682 l 1
 195 -682 l 2
 322 -682 391 -542 391 -400 c 2
 391 958 l 2
 391 1172 549 1356 758 1361 c 0xdf80
 787 1361 815 1358 843 1351 c 1xef80
2307 1351 m 1
 2273 1225 l 1xef80
 2245 1232 2217 1235 2188 1235 c 0
 2067 1235 2009 1096 2009 958 c 2
 2009 -400 l 2
 2009 -628 1825 -811 1598 -811 c 0
 1596 -811 1593 -811 1591 -811 c 1
 1573 -682 l 1
 1659 -682 l 2
 1786 -682 1855 -542 1855 -400 c 2
 1855 958 l 2
 1855 1172 2013 1356 2222 1361 c 0xdf80
 2251 1361 2279 1358 2307 1351 c 1
940 279 m 0
 940 258 917 234 898 215 c 0
 879 197 855 173 834 173 c 0
 813 173 789 197 770 215 c 0
 752 234 728 258 728 279 c 0
 728 300 752 324 770 343 c 0
 789 362 813 385 834 385 c 0
 855 385 879 362 898 343 c 0
 917 324 940 300 940 279 c 0
1306 279 m 0
 1306 258 1283 234 1264 215 c 0
 1245 197 1221 173 1200 173 c 0
 1179 173 1155 197 1136 215 c 0
 1118 234 1094 258 1094 279 c 0
 1094 300 1118 324 1136 343 c 0
 1155 362 1179 385 1200 385 c 0
 1221 385 1245 362 1264 343 c 0
 1283 324 1306 300 1306 279 c 0
1672 279 m 0
 1672 258 1649 234 1630 215 c 0
 1611 197 1587 173 1566 173 c 0
 1545 173 1521 197 1502 215 c 0
 1484 234 1460 258 1460 279 c 0
 1460 300 1484 324 1502 343 c 0
 1521 362 1545 385 1566 385 c 0
 1587 385 1611 362 1630 343 c 0
 1649 324 1672 300 1672 279 c 0
EndSplineSet
EndChar

StartChar: uni2231
Encoding: 78 8753 78
Width: 720
Flags: W
HStem: -328 111<177 256.185> 761 21G<534.5 548.321> 770 108<453.947 542.203>
VStem: 293 134<-179.922 277 376.007 743.296> 546 83<326 360.59>
LayerCount: 2
Back
Fore
SplineSet
645 181 m 1xb8
 459 164 l 1
 452 247 l 1
 484 250 l 1
 466 261 447 270 427 277 c 1
 427 -85 l 2
 427 -220 318 -328 184 -328 c 0
 182 -328 179 -328 177 -328 c 1
 162 -217 l 1
 214 -217 l 2
 270 -217 293 -150 293 -85 c 2
 293 277 l 1
 241 259 195 223 155 183 c 1
 85 254 l 1
 144 313 214 362 293 381 c 1
 293 642 l 2
 293 770 390 878 516 878 c 0
 518 878 519 878 521 878 c 0xb8
 538 878 555 875 572 870 c 1
 543 761 l 1xd8
 526 767 509 770 492 770 c 0
 439 770 427 703 427 642 c 2
 427 381 l 1
 470 371 511 351 549 326 c 1
 546 360 l 1
 629 367 l 1
 645 181 l 1xb8
EndSplineSet
EndChar

StartChar: uni2231.disp
Encoding: 79 -1 79
Width: 929
Flags: W
HStem: -811 129<235 373.119> 321 118<429.487 499 653 722.562> 1235 126<760.269 920.203>
VStem: 499 154<-528.328 321 435.407 1089.22>
LayerCount: 2
Back
Fore
SplineSet
1060 127 m 1
 752 100 l 1
 743 196 l 1
 880 208 l 1
 812 262 736 304 653 321 c 1
 653 -400 l 2
 653 -628 469 -811 242 -811 c 0
 240 -811 237 -811 235 -811 c 1
 217 -682 l 1
 303 -682 l 2
 430 -682 499 -542 499 -400 c 2
 499 321 l 1
 379 297 274 219 185 130 c 1
 103 212 l 1
 214 323 348 415 499 439 c 1
 499 958 l 2
 499 1172 657 1356 866 1361 c 0
 895 1361 923 1358 951 1351 c 1
 917 1225 l 1
 889 1232 861 1235 832 1235 c 0
 711 1235 653 1096 653 958 c 2
 653 439 l 1
 761 422 860 370 948 301 c 1
 937 427 l 1
 1033 436 l 1
 1060 127 l 1
EndSplineSet
EndChar

StartChar: uni2A11
Encoding: 80 10769 80
Width: 720
Flags: W
HStem: -328 111<177 256.185> 177 103<246.008 293> 761 21G<534.5 548.321> 770 108<453.947 542.203>
VStem: 293 134<-179.922 182.401 280 743.296> 546 83<197.325 232>
LayerCount: 2
Back
Fore
SplineSet
645 376 m 1xdc
 629 190 l 1
 546 198 l 1
 549 232 l 1
 511 207 470 187 427 177 c 1
 427 -85 l 2
 427 -220 318 -328 184 -328 c 0
 182 -328 179 -328 177 -328 c 1
 162 -217 l 1
 214 -217 l 2
 270 -217 293 -150 293 -85 c 2
 293 177 l 1
 214 195 144 244 85 303 c 1
 155 374 l 1
 195 334 241 297 293 280 c 1
 293 642 l 2
 293 770 390 878 516 878 c 0
 518 878 519 878 521 878 c 0xdc
 538 878 555 875 572 870 c 1
 543 761 l 1xec
 526 767 509 770 492 770 c 0
 439 770 427 703 427 642 c 2
 427 280 l 1
 447 287 465 296 483 307 c 1
 452 310 l 1
 459 393 l 1
 645 376 l 1xdc
EndSplineSet
EndChar

StartChar: uni2A11.disp
Encoding: 81 -1 81
Width: 929
Flags: W
HStem: -811 129<235 373.119> 119 118<429.487 499 653 722.562> 1235 126<760.269 920.203>
VStem: 499 154<-528.328 122.593 237 1089.22>
LayerCount: 2
Back
Fore
SplineSet
1060 431 m 1
 1033 123 l 1
 937 131 l 1
 948 257 l 1
 860 188 761 136 653 119 c 1
 653 -400 l 2
 653 -628 469 -811 242 -811 c 0
 240 -811 237 -811 235 -811 c 1
 217 -682 l 1
 303 -682 l 2
 430 -682 499 -542 499 -400 c 2
 499 119 l 1
 348 143 214 235 103 346 c 1
 185 428 l 1
 274 339 379 261 499 237 c 1
 499 958 l 2
 499 1172 657 1356 866 1361 c 0
 895 1361 923 1358 951 1351 c 1
 917 1225 l 1
 889 1232 861 1235 832 1235 c 0
 711 1235 653 1096 653 958 c 2
 653 237 l 1
 736 254 812 296 880 350 c 1
 743 362 l 1
 752 458 l 1
 1060 431 l 1
EndSplineSet
EndChar

StartChar: uni2A0D
Encoding: 82 10765 82
Width: 600
Flags: W
HStem: -328 111<117 196.185> 229 100<100 233 367 500> 761 21G<474.5 488.321> 770 108<393.947 482.203>
VStem: 233 134<-179.922 229 329 743.296>
LayerCount: 2
Back
Fore
SplineSet
100 229 m 1xd8
 100 329 l 1
 233 329 l 1
 233 642 l 2
 233 770 330 878 456 878 c 0
 458 878 459 878 461 878 c 0xd8
 478 878 495 875 512 870 c 1
 483 761 l 1xe8
 466 767 449 770 432 770 c 0
 379 770 367 703 367 642 c 2
 367 329 l 1
 500 329 l 1
 500 229 l 1
 367 229 l 1
 367 -85 l 2
 367 -220 258 -328 124 -328 c 0
 122 -328 119 -328 117 -328 c 1
 102 -217 l 1
 154 -217 l 2
 210 -217 233 -150 233 -85 c 2
 233 229 l 1
 100 229 l 1xd8
EndSplineSet
EndChar

StartChar: uni2A0D.disp
Encoding: 83 -1 83
Width: 713
Flags: W
HStem: -811 129<127 265.119> 221 116<140 391 545 796> 1235 126<652.269 812.203>
VStem: 391 154<-528.328 221 337 1089.22>
LayerCount: 2
Back
Fore
SplineSet
140 221 m 1
 140 337 l 1
 391 337 l 1
 391 958 l 2
 391 1172 549 1356 758 1361 c 0
 787 1361 815 1358 843 1351 c 1
 809 1225 l 1
 781 1232 753 1235 724 1235 c 0
 603 1235 545 1096 545 958 c 2
 545 337 l 1
 796 337 l 1
 796 221 l 1
 545 221 l 1
 545 -400 l 2
 545 -628 361 -811 134 -811 c 0
 132 -811 129 -811 127 -811 c 1
 109 -682 l 1
 195 -682 l 2
 322 -682 391 -542 391 -400 c 2
 391 221 l 1
 140 221 l 1
EndSplineSet
EndChar

StartChar: uni2A0E
Encoding: 84 10766 84
Width: 600
Flags: W
HStem: -328 111<117 196.185> 132 100<100 233 367 500> 325 100<100 233 367 500> 761 21G<474.5 488.321> 770 108<393.947 482.203>
VStem: 233 134<-179.922 132 232 325 425 743.296>
LayerCount: 2
Back
Fore
SplineSet
100 325 m 1xec
 100 425 l 1
 233 425 l 1
 233 642 l 2
 233 770 330 878 456 878 c 0
 458 878 459 878 461 878 c 0xec
 478 878 495 875 512 870 c 1
 483 761 l 1xf4
 466 767 449 770 432 770 c 0
 379 770 367 703 367 642 c 2
 367 425 l 1
 500 425 l 1
 500 325 l 1
 367 325 l 1
 367 232 l 1
 500 232 l 1
 500 132 l 1
 367 132 l 1
 367 -85 l 2
 367 -220 258 -328 124 -328 c 0
 122 -328 119 -328 117 -328 c 1
 102 -217 l 1
 154 -217 l 2
 210 -217 233 -150 233 -85 c 2
 233 132 l 1
 100 132 l 1
 100 232 l 1
 233 232 l 1
 233 325 l 1
 100 325 l 1xec
EndSplineSet
EndChar

StartChar: uni2A0E.disp
Encoding: 85 -1 85
Width: 713
Flags: W
HStem: -811 129<127 265.119> 125 116<140 391 545 796> 317 116<140 391 545 796> 1235 126<652.269 812.203>
VStem: 391 154<-528.328 125 241 317 433 1089.22>
LayerCount: 2
Back
Fore
SplineSet
140 317 m 1
 140 433 l 1
 391 433 l 1
 391 958 l 2
 391 1172 549 1356 758 1361 c 0
 787 1361 815 1358 843 1351 c 1
 809 1225 l 1
 781 1232 753 1235 724 1235 c 0
 603 1235 545 1096 545 958 c 2
 545 433 l 1
 796 433 l 1
 796 317 l 1
 545 317 l 1
 545 241 l 1
 796 241 l 1
 796 125 l 1
 545 125 l 1
 545 -400 l 2
 545 -628 361 -811 134 -811 c 0
 132 -811 129 -811 127 -811 c 1
 109 -682 l 1
 195 -682 l 2
 322 -682 391 -542 391 -400 c 2
 391 125 l 1
 140 125 l 1
 140 241 l 1
 391 241 l 1
 391 317 l 1
 140 317 l 1
EndSplineSet
EndChar

StartChar: uni2A0F
Encoding: 86 10767 86
Width: 495
Flags: W
HStem: -328 111<117 196.185> 761 21G<474.5 488.321> 770 108<393.947 482.203>
VStem: 233 134<-179.922 170 387 743.296>
LayerCount: 2
Back
Fore
SplineSet
116 88 m 1xb0
 58 170 l 1
 233 293 l 1
 233 642 l 2
 233 770 330 878 456 878 c 0
 458 878 459 878 461 878 c 0xb0
 478 878 495 875 512 870 c 1
 483 761 l 1xd0
 466 767 449 770 432 770 c 0
 379 770 367 703 367 642 c 2
 367 387 l 1
 484 469 l 1
 542 387 l 1
 367 264 l 1
 367 -85 l 2
 367 -220 258 -328 124 -328 c 0
 122 -328 119 -328 117 -328 c 1
 102 -217 l 1
 154 -217 l 2
 210 -217 233 -150 233 -85 c 2
 233 170 l 1
 116 88 l 1xb0
EndSplineSet
EndChar

StartChar: uni2A0F.disp
Encoding: 87 -1 87
Width: 713
Flags: W
HStem: -811 129<127 265.119> 1235 126<652.269 812.203>
VStem: 391 154<-528.328 155 404 1089.22>
LayerCount: 2
Back
Fore
SplineSet
144 -18 m 1
 78 77 l 1
 391 296 l 1
 391 958 l 2
 391 1172 549 1356 758 1361 c 0
 787 1361 815 1358 843 1351 c 1
 809 1225 l 1
 781 1232 753 1235 724 1235 c 0
 603 1235 545 1096 545 958 c 2
 545 404 l 1
 792 577 l 1
 858 482 l 1
 545 263 l 1
 545 -400 l 2
 545 -628 361 -811 134 -811 c 0
 132 -811 129 -811 127 -811 c 1
 109 -682 l 1
 195 -682 l 2
 322 -682 391 -542 391 -400 c 2
 391 155 l 1
 144 -18 l 1
EndSplineSet
EndChar

StartChar: uni222E
Encoding: 88 8750 88
Width: 660
Flags: W
HStem: -328 111<147 226.185> 761 21G<504.5 518.321> 770 108<423.947 512.203>
VStem: 90 100<202.012 347.988> 263 134<-179.922 51.229 152 398 498.771 743.296> 470 100<202.012 347.988>
CounterMasks: 1 1c
LayerCount: 2
Back
Fore
SplineSet
263 398 m 1x9c
 222 376 190 328 190 275 c 0
 190 222 222 174 263 152 c 1
 263 398 l 1x9c
397 152 m 1
 438 174 470 222 470 275 c 0
 470 328 438 376 397 398 c 1
 397 152 l 1
542 870 m 1
 513 761 l 1xdc
 496 767 479 770 462 770 c 0
 409 770 397 703 397 642 c 2
 397 506 l 1
 436 495 471 474 500 445 c 0
 545 400 570 339 570 275 c 0
 570 211 545 150 500 105 c 0
 471 76 436 55 397 44 c 1
 397 -85 l 2
 397 -220 288 -328 154 -328 c 0
 152 -328 149 -328 147 -328 c 1
 132 -217 l 1
 184 -217 l 2
 240 -217 263 -150 263 -85 c 2
 263 44 l 1
 224 55 189 76 160 105 c 0
 115 150 90 211 90 275 c 0
 90 339 115 400 160 445 c 0
 189 474 224 495 263 506 c 1
 263 642 l 2
 263 770 360 878 486 878 c 0
 488 878 489 878 491 878 c 0xbc
 508 878 525 875 542 870 c 1
EndSplineSet
EndChar

StartChar: uni222E.disp
Encoding: 89 -1 89
Width: 821
Flags: W
HStem: -811 129<181 319.119> -150 118<385.801 445 599 658.199> 582 118<385.801 445 599 658.199> 1235 126<706.269 866.203>
VStem: 90 116<160.293 389.707> 445 154<-528.328 -145.794 -32 582 695.794 1089.22> 838 116<160.293 389.707>
CounterMasks: 1 0e
LayerCount: 2
Back
Fore
SplineSet
445 -32 m 1
 445 582 l 1
 390 568 339 540 298 499 c 0
 239 439 206 359 206 275 c 0
 206 191 239 111 298 51 c 0
 339 10 390 -18 445 -32 c 1
838 275 m 0
 838 359 805 439 746 499 c 0
 705 540 654 568 599 582 c 1
 599 -32 l 1
 654 -18 705 10 746 51 c 0
 805 111 838 191 838 275 c 0
897 1351 m 1
 863 1225 l 1
 835 1232 807 1235 778 1235 c 0
 657 1235 599 1096 599 958 c 2
 599 700 l 1
 685 684 764 643 827 580 c 0
 908 499 954 390 954 275 c 0
 954 160 908 51 827 -30 c 0
 764 -93 685 -134 599 -150 c 1
 599 -400 l 2
 599 -628 415 -811 188 -811 c 0
 186 -811 183 -811 181 -811 c 1
 163 -682 l 1
 249 -682 l 2
 376 -682 445 -542 445 -400 c 2
 445 -150 l 1
 359 -134 280 -93 217 -30 c 0
 136 51 90 160 90 275 c 0
 90 390 136 499 217 580 c 0
 280 643 359 684 445 700 c 1
 445 958 l 2
 445 1172 603 1356 812 1361 c 0
 841 1361 869 1358 897 1351 c 1
EndSplineSet
EndChar

StartChar: uni222F
Encoding: 90 8751 90
Width: 960
Flags: W
HStem: -328 111<147 226.185 447 526.185> 35 100<397 563> 415 100<397 563> 761 21G<504.5 518.321 804.5 818.321> 770 108<423.947 512.203 723.947 812.203>
VStem: 90 100<211.41 338.59> 263 134<-179.922 37 170 380 513 743.296> 563 134<-179.922 37 170 380 513 743.296> 770 100<211.217 338.783>
LayerCount: 2
Back
Fore
SplineSet
263 170 m 1xe780
 263 380 l 1
 221 360 190 321 190 275 c 0
 190 229 221 190 263 170 c 1xe780
563 138 m 1
 563 412 l 1
 535 414 508 415 480 415 c 0
 452 415 425 414 397 412 c 1
 397 138 l 1
 425 136 452 135 480 135 c 0
 508 135 535 136 563 138 c 1
697 170 m 1
 739 189 770 229 770 275 c 0
 770 321 739 361 697 380 c 1
 697 170 l 1
842 870 m 1
 813 761 l 1xf780
 796 767 779 770 762 770 c 0
 709 770 697 703 697 642 c 2
 697 489 l 1
 723 481 749 470 773 455 c 0
 835 417 870 348 870 275 c 0
 870 202 835 133 773 95 c 0
 749 80 723 69 697 61 c 1
 697 -85 l 2
 697 -220 588 -328 454 -328 c 0
 452 -328 449 -328 447 -328 c 1
 432 -217 l 1
 484 -217 l 2
 540 -217 563 -150 563 -85 c 2
 563 37 l 1
 535 35 508 35 480 35 c 0
 452 35 425 35 397 37 c 1
 397 -85 l 2
 397 -220 288 -328 154 -328 c 0
 152 -328 149 -328 147 -328 c 1
 132 -217 l 1
 184 -217 l 2
 240 -217 263 -150 263 -85 c 2
 263 61 l 1
 237 69 212 80 188 95 c 0
 126 133 90 202 90 275 c 0
 90 348 126 417 188 455 c 0
 212 470 237 481 263 489 c 1
 263 642 l 2
 263 770 360 878 486 878 c 0
 488 878 489 878 491 878 c 0xef80
 508 878 525 875 542 870 c 1
 513 761 l 1xf780
 496 767 479 770 462 770 c 0
 409 770 397 703 397 642 c 2
 397 513 l 1
 425 515 452 515 480 515 c 0
 508 515 535 515 563 513 c 1
 563 642 l 2
 563 770 660 878 786 878 c 0
 788 878 789 878 791 878 c 0xef80
 808 878 825 875 842 870 c 1
EndSplineSet
EndChar

StartChar: uni222F.disp
Encoding: 91 -1 91
Width: 1361
Flags: W
HStem: -811 129<181 319.119 721 859.119> -157 116<602.001 981.999> 591 116<602.001 981.999> 1225 126<813.359 864.889 1353.36 1404.89> 1235 126<706.269 866.203 1246.27 1406.2>
VStem: 90 116<172.792 377.208> 445 154<-528.328 -149 -1 551 699 1089.22> 985 154<-528.328 -149 -1 551 699 1089.22> 1378 116<172.792 377.208>
LayerCount: 2
Back
Fore
SplineSet
445 -1 m 1xe780
 445 551 l 1
 413 541 382 528 352 512 c 0
 264 465 206 375 206 275 c 0
 206 175 264 85 352 38 c 0
 382 22 413 9 445 -1 c 1xe780
985 -33 m 1
 985 583 l 1
 921 590 856 591 792 591 c 0
 728 591 663 590 599 583 c 1
 599 -33 l 1
 663 -40 728 -41 792 -41 c 0
 856 -41 921 -40 985 -33 c 1
1378 275 m 0
 1378 375 1320 465 1232 512 c 0
 1202 528 1171 541 1139 551 c 1
 1139 -1 l 1
 1171 9 1202 22 1232 38 c 0
 1320 85 1378 175 1378 275 c 0
1437 1351 m 1xf780
 1403 1225 l 1xf780
 1375 1232 1347 1235 1318 1235 c 0
 1197 1235 1139 1096 1139 958 c 2
 1139 674 l 1
 1202 658 1263 634 1319 599 c 0
 1430 530 1494 406 1494 275 c 0
 1494 144 1430 20 1319 -49 c 0
 1263 -84 1202 -108 1139 -124 c 1
 1139 -400 l 2
 1139 -628 955 -811 728 -811 c 0
 726 -811 723 -811 721 -811 c 1
 703 -682 l 1
 789 -682 l 2
 916 -682 985 -542 985 -400 c 2
 985 -149 l 1
 921 -155 856 -157 792 -157 c 0
 728 -157 663 -155 599 -149 c 1
 599 -400 l 2
 599 -628 415 -811 188 -811 c 0
 186 -811 183 -811 181 -811 c 1
 163 -682 l 1
 249 -682 l 2
 376 -682 445 -542 445 -400 c 2
 445 -124 l 1
 382 -108 322 -84 266 -49 c 0
 154 20 90 144 90 275 c 0
 90 406 154 530 266 599 c 0
 322 634 382 658 445 674 c 1
 445 958 l 2
 445 1172 603 1356 812 1361 c 0xef80
 841 1361 869 1358 897 1351 c 1
 863 1225 l 1xf780
 835 1232 807 1235 778 1235 c 0
 657 1235 599 1096 599 958 c 2
 599 699 l 1
 663 705 728 707 792 707 c 0
 856 707 921 705 985 699 c 1
 985 958 l 2
 985 1172 1143 1356 1352 1361 c 0xef80
 1381 1361 1409 1358 1437 1351 c 1xf780
EndSplineSet
EndChar

StartChar: uni2230
Encoding: 92 8752 92
Width: 1260
Flags: W
HStem: -328 111<147 226.185 447 526.185 747 826.185> 47 100<397 560.376 699.624 863> 403 100<397 560.376 699.624 863> 761 21G<504.5 518.321 804.5 818.321 1104.5 1118.32> 770 108<423.947 512.203 723.947 812.203 1023.95 1112.2>
VStem: 90 100<222.78 327.22> 263 134<-179.922 47 185 365 503 743.296> 563 134<-179.922 36 135 415 514 743.296> 863 134<-179.922 47 185 365 503 743.296> 1070 100<222.78 327.22>
LayerCount: 2
Back
Fore
SplineSet
263 185 m 1xe7c0
 263 365 l 1
 223 346 190 317 190 275 c 0
 190 233 223 204 263 185 c 1xe7c0
397 147 m 1
 452 138 507 136 563 135 c 1
 563 415 l 1
 507 414 452 412 397 403 c 1
 397 147 l 1
697 135 m 1
 753 136 808 138 863 147 c 1
 863 403 l 1
 808 412 753 414 697 415 c 1
 697 135 l 1
997 185 m 1
 1037 204 1070 233 1070 275 c 0
 1070 317 1037 346 997 365 c 1
 997 185 l 1
1142 870 m 1
 1113 761 l 1xf7c0
 1096 767 1079 770 1062 770 c 0
 1009 770 997 703 997 642 c 2
 997 470 l 1
 1010 465 1022 461 1035 455 c 0
 1110 422 1170 356 1170 275 c 0
 1170 194 1110 128 1035 95 c 0
 1022 89 1010 85 997 80 c 1
 997 -85 l 2
 997 -220 888 -328 754 -328 c 0
 752 -328 749 -328 747 -328 c 1
 732 -217 l 1
 784 -217 l 2
 840 -217 863 -150 863 -85 c 2
 863 47 l 1
 808 39 753 37 697 36 c 1
 697 -85 l 2
 697 -220 588 -328 454 -328 c 0
 452 -328 449 -328 447 -328 c 1
 432 -217 l 1
 484 -217 l 2
 540 -217 563 -150 563 -85 c 2
 563 36 l 1
 507 37 452 39 397 47 c 1
 397 -85 l 2
 397 -220 288 -328 154 -328 c 0
 152 -328 149 -328 147 -328 c 1
 132 -217 l 1
 184 -217 l 2
 240 -217 263 -150 263 -85 c 2
 263 80 l 1
 250 85 238 89 225 95 c 0
 150 128 90 194 90 275 c 0
 90 356 150 422 225 455 c 0
 238 461 250 465 263 470 c 1
 263 642 l 2
 263 770 360 878 486 878 c 0
 488 878 489 878 491 878 c 0xefc0
 508 878 525 875 542 870 c 1
 513 761 l 1xf7c0
 496 767 479 770 462 770 c 0
 409 770 397 703 397 642 c 2
 397 503 l 1
 452 511 507 513 563 514 c 1
 563 642 l 2
 563 770 660 878 786 878 c 0
 788 878 789 878 791 878 c 0xefc0
 808 878 825 875 842 870 c 1
 813 761 l 1xf7c0
 796 767 779 770 762 770 c 0
 709 770 697 703 697 642 c 2
 697 514 l 1
 753 513 808 511 863 503 c 1
 863 642 l 2
 863 770 960 878 1086 878 c 0
 1088 878 1089 878 1091 878 c 0xefc0
 1108 878 1125 875 1142 870 c 1
EndSplineSet
EndChar

StartChar: uni2230.disp
Encoding: 93 -1 93
Width: 1901
Flags: W
HStem: -811 129<181 319.119 721 859.119 1261 1399.12> -128 117<599 766.337 1357.66 1525> 561 117<599 766.337 1357.66 1525> 1225 126<813.359 864.889 1353.36 1404.89 1893.36 1944.89> 1235 126<706.269 866.203 1246.27 1406.2 1786.27 1946.2>
VStem: 90 116<189.46 360.54> 445 154<-528.328 -128 29 521 678 1089.22> 985 154<-528.328 -157 -41 591 707 1089.22> 1525 154<-528.328 -128 29 521 678 1089.22> 1918 116<189.46 360.54>
LayerCount: 2
Back
Fore
SplineSet
445 521 m 1xe7c0
 325 480 206 401 206 275 c 0
 206 149 325 70 445 29 c 1
 445 521 l 1xe7c0
599 -11 m 1
 725 -35 855 -40 985 -41 c 1
 985 591 l 1
 855 590 725 585 599 561 c 1
 599 -11 l 1
1139 -41 m 1
 1269 -40 1399 -35 1525 -11 c 1
 1525 561 l 1
 1399 585 1269 590 1139 591 c 1
 1139 -41 l 1
1679 29 m 1
 1799 70 1918 149 1918 275 c 0
 1918 401 1799 480 1679 521 c 1
 1679 29 l 1
1977 1351 m 1xf7c0
 1943 1225 l 1xf7c0
 1915 1232 1887 1235 1858 1235 c 0
 1737 1235 1679 1096 1679 958 c 2
 1679 641 l 1
 1717 629 1754 615 1791 599 c 0
 1927 539 2034 421 2034 275 c 0
 2034 129 1927 11 1791 -49 c 0
 1754 -65 1717 -79 1679 -91 c 1
 1679 -400 l 2
 1679 -628 1495 -811 1268 -811 c 0
 1266 -811 1263 -811 1261 -811 c 1
 1243 -682 l 1
 1329 -682 l 2
 1456 -682 1525 -542 1525 -400 c 2
 1525 -128 l 1
 1399 -150 1269 -156 1139 -157 c 1
 1139 -400 l 2
 1139 -628 955 -811 728 -811 c 0
 726 -811 723 -811 721 -811 c 1
 703 -682 l 1
 789 -682 l 2
 916 -682 985 -542 985 -400 c 2
 985 -157 l 1
 855 -156 725 -150 599 -128 c 1
 599 -400 l 2
 599 -628 415 -811 188 -811 c 0
 186 -811 183 -811 181 -811 c 1
 163 -682 l 1
 249 -682 l 2
 376 -682 445 -542 445 -400 c 2
 445 -91 l 1
 407 -79 370 -65 333 -49 c 0
 198 11 90 129 90 275 c 0
 90 421 198 539 333 599 c 0
 370 615 407 629 445 641 c 1
 445 958 l 2
 445 1172 603 1356 812 1361 c 0xefc0
 841 1361 869 1358 897 1351 c 1
 863 1225 l 1xf7c0
 835 1232 807 1235 778 1235 c 0
 657 1235 599 1096 599 958 c 2
 599 678 l 1
 725 700 855 706 985 707 c 1
 985 958 l 2
 985 1172 1143 1356 1352 1361 c 0xefc0
 1381 1361 1409 1358 1437 1351 c 1
 1403 1225 l 1xf7c0
 1375 1232 1347 1235 1318 1235 c 0
 1197 1235 1139 1096 1139 958 c 2
 1139 707 l 1
 1269 706 1399 700 1525 678 c 1
 1525 958 l 2
 1525 1172 1683 1356 1892 1361 c 0xefc0
 1921 1361 1949 1358 1977 1351 c 1xf7c0
EndSplineSet
EndChar

StartChar: uni2233
Encoding: 94 8755 94
Width: 720
Flags: W
HStem: -328 111<147 226.185> 761 21G<504.5 518.321> 770 108<423.947 512.203>
VStem: 90 100<204.237 354.31> 263 134<-179.922 55.0441 156 201 256 401 501.909 743.296>
LayerCount: 2
Back
Fore
SplineSet
263 401 m 1x98
 222 380 190 337 190 278 c 0
 190 219 223 178 263 156 c 1
 263 401 l 1x98
425 176 m 1
 415 170 l 1
 397 201 l 1
 397 156 l 1
 407 161 416 168 425 176 c 1
540 162 m 1
 510 109 461 67 397 48 c 1
 397 -85 l 2
 397 -220 288 -328 154 -328 c 0
 152 -328 149 -328 147 -328 c 1
 132 -217 l 1
 184 -217 l 2
 240 -217 263 -150 263 -85 c 2
 263 48 l 1
 168 76 90 158 90 279 c 0
 90 307 95 335 104 361 c 0
 130 430 187 487 263 509 c 1
 263 642 l 2
 263 770 360 878 486 878 c 0
 488 878 489 878 491 878 c 0xb8
 508 878 525 875 542 870 c 1
 513 761 l 1xd8
 496 767 479 770 462 770 c 0xb8
 409 770 397 703 397 642 c 2
 397 509 l 1
 465 489 519 442 548 380 c 1
 457 338 l 1
 444 365 423 387 397 401 c 1
 397 256 l 1
 535 335 l 1
 568 279 l 1
 570 279 l 1
 570 278 570 276 570 275 c 2
 629 174 l 1
 557 132 l 1
 540 162 l 1
EndSplineSet
EndChar

StartChar: uni2233.disp
Encoding: 95 -1 95
Width: 929
Flags: W
HStem: -811 129<181 319.119> -146 118<385.284 445 599 657.605> 586 118<387.963 445 599 658.716> 1235 126<706.269 866.203>
VStem: 90 116<163.089 392.216> 445 154<-528.328 -141.697 -28 586 699.958 1089.22>
LayerCount: 2
Back
Fore
SplineSet
445 586 m 1
 338 559 260 483 225 387 c 0
 212 352 206 315 206 278 c 0
 206 232 216 187 235 145 c 0
 275 60 349 -4 445 -28 c 1
 445 586 l 1
914 462 m 1
 809 413 l 1
 769 498 695 562 599 586 c 1
 599 -28 l 1
 709 0 789 79 823 181 c 1
 694 107 l 1
 646 190 l 1
 914 345 l 1
 952 279 l 1
 954 279 l 1
 954 278 954 277 954 276 c 2
 1069 77 l 1
 985 29 l 1
 927 129 l 1
 888 23 807 -64 705 -112 c 0
 671 -128 635 -139 599 -146 c 1
 599 -400 l 2
 599 -628 415 -811 188 -811 c 0
 186 -811 183 -811 181 -811 c 1
 163 -682 l 1
 249 -682 l 2
 376 -682 445 -542 445 -400 c 2
 445 -146 l 1
 421 -142 397 -135 374 -127 c 0
 267 -88 179 -7 130 97 c 0
 103 154 90 217 90 279 c 0
 90 329 99 379 116 427 c 0
 155 535 236 622 339 671 c 0
 373 687 409 698 445 704 c 1
 445 958 l 2
 445 1172 603 1356 812 1361 c 0
 841 1361 869 1358 897 1351 c 1
 863 1225 l 1
 835 1232 807 1235 778 1235 c 0
 657 1235 599 1096 599 958 c 2
 599 704 l 1
 623 700 647 693 670 685 c 0
 777 646 865 566 914 462 c 1
EndSplineSet
EndChar

StartChar: uni2232.alt
Encoding: 96 -1 96
Width: 720
Flags: W
HStem: -328 111<147 226.185> 761 21G<504.5 518.321> 770 108<423.947 512.203>
VStem: 90 100<204.237 354.31> 263 134<-179.922 53.8792 156 301 356 401 502.281 743.296>
LayerCount: 2
Back
Fore
SplineSet
263 401 m 1x98
 222 380 190 337 190 278 c 0
 190 219 223 178 263 156 c 1
 263 401 l 1x98
425 381 m 1
 417 389 407 395 397 401 c 1
 397 356 l 1
 415 387 l 1
 425 381 l 1
556 196 m 1
 530 127 473 70 397 48 c 1
 397 -85 l 2
 397 -220 288 -328 154 -328 c 0
 152 -328 149 -328 147 -328 c 1
 132 -217 l 1
 184 -217 l 2
 240 -217 263 -150 263 -85 c 2
 263 48 l 1
 168 76 90 158 90 279 c 0
 90 307 95 335 104 361 c 0
 130 430 187 487 263 509 c 1
 263 642 l 2
 263 770 360 878 486 878 c 0
 488 878 489 878 491 878 c 0xb8
 508 878 525 875 542 870 c 1
 513 761 l 1xd8
 496 767 479 770 462 770 c 0xb8
 409 770 397 703 397 642 c 2
 397 509 l 1
 460 491 510 450 540 396 c 1
 557 425 l 1
 629 383 l 1
 570 282 l 2
 570 281 570 280 570 279 c 2
 568 279 l 1
 535 222 l 1
 397 301 l 1
 397 156 l 1
 427 172 450 199 462 231 c 1
 556 196 l 1
EndSplineSet
EndChar

StartChar: uni2232.alt.disp
Encoding: 97 -1 97
Width: 929
Flags: W
HStem: -811 129<181 319.119> -146 118<385.284 445 599 655.951> 586 118<387.963 445 599 656.577> 1235 126<706.269 866.203>
VStem: 90 116<163.089 392.216> 445 154<-528.328 -141.697 -28 586 699.958 1089.22>
LayerCount: 2
Back
Fore
SplineSet
445 586 m 1
 338 559 260 483 225 387 c 0
 212 352 206 315 206 278 c 0
 206 232 216 187 235 145 c 0
 275 60 349 -4 445 -28 c 1
 445 586 l 1
599 -28 m 1
 706 -1 783 74 819 171 c 1
 928 131 l 1
 889 24 808 -64 705 -112 c 0
 671 -128 635 -139 599 -146 c 1
 599 -400 l 2
 599 -628 415 -811 188 -811 c 0
 186 -811 183 -811 181 -811 c 1
 163 -682 l 1
 249 -682 l 2
 376 -682 445 -542 445 -400 c 2
 445 -146 l 1
 421 -142 397 -135 374 -127 c 0
 267 -88 179 -7 130 97 c 0
 103 154 90 217 90 279 c 0
 90 329 99 379 116 427 c 0
 155 535 236 622 339 671 c 0
 373 687 409 698 445 704 c 1
 445 958 l 2
 445 1172 603 1356 812 1361 c 0
 841 1361 869 1358 897 1351 c 1
 863 1225 l 1
 835 1232 807 1235 778 1235 c 0
 657 1235 599 1096 599 958 c 2
 599 704 l 1
 623 700 647 693 670 685 c 0
 787 643 883 550 927 430 c 1
 985 530 l 1
 1069 481 l 1
 954 282 l 2
 954 281 954 280 954 279 c 1
 952 279 l 1
 914 213 l 1
 646 368 l 1
 694 452 l 1
 823 377 l 1
 790 482 706 559 599 586 c 1
 599 -28 l 1
EndSplineSet
EndChar

StartChar: uni2233.alt
Encoding: 98 -1 98
Width: 720
Flags: W
HStem: -328 111<207 286.185> 761 21G<564.5 578.321> 770 108<483.947 572.203>
VStem: 323 134<-179.922 55.0914 156 301 356 401 501.956 743.296> 530 100<202.502 352.575>
LayerCount: 2
Back
Fore
SplineSet
457 156 m 1x98
 498 177 530 219 530 279 c 0
 530 337 496 379 457 401 c 1
 457 156 l 1x98
295 381 m 1
 305 387 l 1
 323 356 l 1
 323 401 l 1
 313 396 304 389 295 381 c 1
180 395 m 1
 210 448 259 490 323 509 c 1
 323 642 l 2
 323 770 420 878 546 878 c 0
 548 878 549 878 551 878 c 0xb8
 568 878 585 875 602 870 c 1
 573 761 l 1xd8
 556 767 539 770 522 770 c 0xb8
 469 770 457 703 457 642 c 2
 457 509 l 1
 552 481 630 399 630 278 c 0
 630 250 625 222 616 196 c 0
 590 127 533 70 457 48 c 1
 457 -85 l 2
 457 -220 348 -328 214 -328 c 0
 212 -328 209 -328 207 -328 c 1
 192 -217 l 1
 244 -217 l 2
 300 -217 323 -150 323 -85 c 2
 323 48 l 1
 255 68 201 115 172 177 c 1
 263 219 l 1
 276 192 297 170 323 156 c 1
 323 301 l 1
 185 222 l 1
 152 279 l 1
 150 279 l 2
 150 280 150 281 150 282 c 2
 91 383 l 1
 163 425 l 1
 180 395 l 1
EndSplineSet
EndChar

StartChar: uni2233.alt.disp
Encoding: 99 -1 99
Width: 929
Flags: W
HStem: -811 129<289 427.119> -146 118<493.284 553 707 763.951> 586 118<494.023 553 707 766.716> 1235 126<814.269 974.203>
VStem: 553 154<-528.328 -141.697 -28 586 699.958 1089.22> 946 116<165.831 395.191>
LayerCount: 2
Back
Fore
SplineSet
707 -28 m 1
 814 -1 891 74 927 171 c 0
 940 206 946 243 946 280 c 0
 946 326 936 371 917 413 c 0
 877 498 803 562 707 586 c 1
 707 -28 l 1
238 97 m 1
 343 145 l 1
 383 60 457 -4 553 -28 c 1
 553 586 l 1
 442 559 363 478 329 377 c 1
 458 452 l 1
 506 368 l 1
 238 213 l 1
 200 279 l 1
 198 279 l 1
 198 280 198 281 198 282 c 2
 83 481 l 1
 167 530 l 1
 225 430 l 1
 264 536 345 622 447 671 c 0
 481 687 517 698 553 704 c 1
 553 958 l 2
 553 1172 711 1356 920 1361 c 0
 949 1361 977 1358 1005 1351 c 1
 971 1225 l 1
 943 1232 915 1235 886 1235 c 0
 765 1235 707 1096 707 958 c 2
 707 704 l 1
 731 700 755 693 778 685 c 0
 885 646 973 566 1022 462 c 0
 1049 404 1062 342 1062 280 c 0
 1062 230 1053 179 1036 131 c 0
 997 24 916 -64 813 -112 c 0
 779 -128 743 -139 707 -146 c 1
 707 -400 l 2
 707 -628 523 -811 296 -811 c 0
 294 -811 291 -811 289 -811 c 1
 271 -682 l 1
 357 -682 l 2
 484 -682 553 -542 553 -400 c 2
 553 -146 l 1
 529 -142 505 -135 482 -127 c 0
 375 -88 287 -7 238 97 c 1
EndSplineSet
EndChar

StartChar: uni2232
Encoding: 100 8754 100
Width: 720
Flags: W
HStem: -328 111<207 286.185> 761 21G<564.5 578.321> 770 108<483.947 572.203>
VStem: 323 134<-179.922 54.7186 156 201 256 401 503.121 743.296> 530 100<202.502 352.575>
LayerCount: 2
Back
Fore
SplineSet
457 156 m 1x98
 498 177 530 219 530 279 c 0
 530 337 496 379 457 401 c 1
 457 156 l 1x98
295 176 m 1
 303 168 313 162 323 156 c 1
 323 201 l 1
 305 170 l 1
 295 176 l 1
164 361 m 1
 190 430 247 487 323 509 c 1
 323 642 l 2
 323 770 420 878 546 878 c 0
 548 878 549 878 551 878 c 0xb8
 568 878 585 875 602 870 c 1
 573 761 l 1xd8
 556 767 539 770 522 770 c 0xb8
 469 770 457 703 457 642 c 2
 457 509 l 1
 552 481 630 399 630 278 c 0
 630 250 625 222 616 196 c 0
 590 127 533 70 457 48 c 1
 457 -85 l 2
 457 -220 348 -328 214 -328 c 0
 212 -328 209 -328 207 -328 c 1
 192 -217 l 1
 244 -217 l 2
 300 -217 323 -150 323 -85 c 2
 323 48 l 1
 260 66 210 107 180 161 c 1
 163 132 l 1
 91 174 l 1
 150 275 l 2
 150 276 150 278 150 279 c 1
 152 279 l 1
 185 335 l 1
 323 256 l 1
 323 401 l 1
 293 385 270 358 258 326 c 1
 164 361 l 1
EndSplineSet
EndChar

StartChar: uni2232.disp
Encoding: 101 -1 101
Width: 929
Flags: W
HStem: -811 129<289 427.119> -146 118<495.423 553 707 763.951> 586 118<495.963 553 707 766.716> 1235 126<814.269 974.203>
VStem: 553 154<-528.328 -141.697 -28 586 699.958 1089.22> 946 116<165.831 395.191>
LayerCount: 2
Back
Fore
SplineSet
707 -28 m 1
 814 -1 891 74 927 171 c 0
 940 206 946 243 946 280 c 0
 946 326 936 371 917 413 c 0
 877 498 803 562 707 586 c 1
 707 -28 l 1
553 586 m 1
 446 559 368 483 333 387 c 1
 224 427 l 1
 263 535 344 622 447 671 c 0
 481 687 517 698 553 704 c 1
 553 958 l 2
 553 1172 711 1356 920 1361 c 0
 949 1361 977 1358 1005 1351 c 1
 971 1225 l 1
 943 1232 915 1235 886 1235 c 0
 765 1235 707 1096 707 958 c 2
 707 704 l 1
 731 700 755 693 778 685 c 0
 885 646 973 566 1022 462 c 0
 1049 404 1062 342 1062 280 c 0
 1062 230 1053 179 1036 131 c 0
 997 24 916 -64 813 -112 c 0
 779 -128 743 -139 707 -146 c 1
 707 -400 l 2
 707 -628 523 -811 296 -811 c 0
 294 -811 291 -811 289 -811 c 1
 271 -682 l 1
 357 -682 l 2
 484 -682 553 -542 553 -400 c 2
 553 -146 l 1
 529 -142 505 -135 482 -127 c 0
 365 -84 269 8 225 129 c 1
 167 29 l 1
 83 77 l 1
 198 276 l 2
 198 277 198 278 198 279 c 1
 200 279 l 1
 238 345 l 1
 506 190 l 1
 458 107 l 1
 329 181 l 1
 362 77 446 -1 553 -28 c 1
 553 586 l 1
EndSplineSet
EndChar

StartChar: uni2A0B
Encoding: 102 10763 102
Width: 630
Flags: W
HStem: -328 111<147 226.185> -4 90<221 263> 485 76<248 263 397 427.652> 761 21G<504.5 518.321> 770 108<423.947 512.203>
VStem: 263 134<-179.922 -4 105 138 462 481 561 743.296> 465 42<389 434.984> 486 41<138.128 164.537>
LayerCount: 2
Back
Fore
SplineSet
263 138 m 1xe4
 221 80 l 1
 263 86 l 1
 263 138 l 1xe4
263 485 m 1
 248 485 l 1
 263 462 l 1
 263 485 l 1
106 -4 m 1
 87 80 l 1
 220 265 l 1
 87 468 l 1
 108 561 l 1
 263 561 l 1
 263 642 l 2
 263 770 360 878 486 878 c 0
 488 878 489 878 491 878 c 0xed
 508 878 525 875 542 870 c 1
 513 761 l 1xf5
 496 767 479 770 462 770 c 0
 409 770 397 703 397 642 c 2
 397 561 l 1
 507 561 l 1
 507 389 l 1
 465 389 l 1xee
 449 428 427 480 402 481 c 2
 397 481 l 1
 397 105 l 1
 438 113 477 133 486 172 c 1
 527 163 l 1xed
 480 -4 l 1
 397 -4 l 1
 397 -85 l 2
 397 -220 288 -328 154 -328 c 0
 152 -328 149 -328 147 -328 c 1
 132 -217 l 1
 184 -217 l 2
 240 -217 263 -150 263 -85 c 2
 263 -4 l 1
 106 -4 l 1
EndSplineSet
EndChar

StartChar: uni2A0B.disp
Encoding: 103 -1 103
Width: 882
Flags: W
HStem: -811 129<181 319.119> -230 110<342.692 445> 698 90<285 445 599 738.146> 1235 126<706.269 866.203>
VStem: 445 154<-528.328 -230 -109 125 471 696 788 1089.22> 813 48<589 627.93> 838 47<-61.1481 -34.3617>
LayerCount: 2
Back
Fore
SplineSet
445 125 m 1xf8
 255 -133 l 1
 445 -120 l 1
 445 125 l 1xf8
445 698 m 1
 285 700 l 1
 445 471 l 1
 445 698 l 1
128 -230 m 1
 105 -133 l 1
 397 264 l 1
 105 680 l 1
 130 788 l 1
 445 788 l 1
 445 958 l 2
 445 1172 603 1356 812 1361 c 0
 841 1361 869 1358 897 1351 c 1
 863 1225 l 1
 835 1232 807 1235 778 1235 c 0
 657 1235 599 1096 599 958 c 2
 599 788 l 1
 861 788 l 1
 861 589 l 1
 813 589 l 1xfc
 788 648 736 694 672 695 c 2
 599 696 l 1
 599 -109 l 1
 649 -106 l 2
 729 -101 822 -94 838 -25 c 1
 885 -36 l 1xfa
 831 -230 l 1
 599 -230 l 1
 599 -400 l 2
 599 -628 415 -811 188 -811 c 0
 186 -811 183 -811 181 -811 c 1
 163 -682 l 1
 249 -682 l 2
 376 -682 445 -542 445 -400 c 2
 445 -230 l 1
 128 -230 l 1
EndSplineSet
EndChar

StartChar: uni2A0B.sf
Encoding: 104 -1 104
Width: 630
Flags: W
HStem: -328 111<147 226.185> -4 114<243 263 397 507> 447 114<243 263 397 507> 761 21G<504.5 518.321> 770 108<423.947 512.203>
VStem: 263 134<-179.922 -4 110 136 422 447 561 743.296>
LayerCount: 2
Back
Fore
SplineSet
263 136 m 1xe4
 243 110 l 1
 263 110 l 1
 263 136 l 1xe4
263 447 m 1
 243 447 l 1
 263 422 l 1
 263 447 l 1
87 -4 m 1
 87 110 l 1
 218 279 l 1
 87 447 l 1
 87 561 l 1
 263 561 l 1
 263 642 l 2
 263 770 360 878 486 878 c 0
 488 878 489 878 491 878 c 0xec
 508 878 525 875 542 870 c 1
 513 761 l 1xf4
 496 767 479 770 462 770 c 0xec
 409 770 397 703 397 642 c 2
 397 561 l 1
 507 561 l 1
 507 447 l 1
 397 447 l 1
 397 110 l 1
 507 110 l 1
 507 -4 l 1
 397 -4 l 1
 397 -85 l 2
 397 -220 288 -328 154 -328 c 0
 152 -328 149 -328 147 -328 c 1
 132 -217 l 1
 184 -217 l 2
 240 -217 263 -150 263 -85 c 2
 263 -4 l 1
 87 -4 l 1
EndSplineSet
EndChar

StartChar: uni2A0B.sf.disp
Encoding: 105 -1 105
Width: 882
Flags: W
HStem: -811 129<181 319.119> -230 133<280 445 599 861> 655 133<280 445 599 861> 1235 126<706.269 866.203>
VStem: 445 154<-528.328 -230 -97 116 442 655 788 1089.22>
LayerCount: 2
Back
Fore
SplineSet
445 116 m 1
 280 -97 l 1
 445 -97 l 1
 445 116 l 1
445 655 m 1
 280 655 l 1
 445 442 l 1
 445 655 l 1
105 -230 m 1
 105 -97 l 1
 396 279 l 1
 105 655 l 1
 105 788 l 1
 445 788 l 1
 445 958 l 2
 445 1172 603 1356 812 1361 c 0
 841 1361 869 1358 897 1351 c 1
 863 1225 l 1
 835 1232 807 1235 778 1235 c 0
 657 1235 599 1096 599 958 c 2
 599 788 l 1
 861 788 l 1
 861 655 l 1
 599 655 l 1
 599 -97 l 1
 861 -97 l 1
 861 -230 l 1
 599 -230 l 1
 599 -400 l 2
 599 -628 415 -811 188 -811 c 0
 186 -811 183 -811 181 -811 c 1
 163 -682 l 1
 249 -682 l 2
 376 -682 445 -542 445 -400 c 2
 445 -230 l 1
 105 -230 l 1
EndSplineSet
EndChar

StartChar: uni0302
Encoding: 114 770 106
Width: 420
Flags: W
HStem: 679 201
LayerCount: 2
Back
Fore
SplineSet
-21 769 m 1
 210 880 l 1
 441 769 l 1
 399 679 l 1
 210 760 l 1
 21 679 l 1
 -21 769 l 1
EndSplineSet
EndChar

StartChar: uni0302.big1
Encoding: 115 -1 107
Width: 756
Flags: W
HStem: 676 204
LayerCount: 2
Back
Fore
SplineSet
-12 772 m 1
 378 880 l 1
 768 772 l 1
 744 676 l 1
 378 760 l 1
 12 676 l 1
 -12 772 l 1
EndSplineSet
EndChar

StartChar: uni0302.big2
Encoding: 116 -1 108
Width: 1092
Flags: W
HStem: 675 205
LayerCount: 2
Back
Fore
SplineSet
-9 773 m 1
 546 880 l 1
 1101 773 l 1
 1083 675 l 1
 546 760 l 1
 9 675 l 1
 -9 773 l 1
EndSplineSet
EndChar

StartChar: uni0302.big3
Encoding: 117 -1 109
Width: 1428
Flags: W
HStem: 674 206
LayerCount: 2
Back
Fore
SplineSet
-7 774 m 1
 714 880 l 1
 1435 774 l 1
 1421 674 l 1
 714 760 l 1
 7 674 l 1
 -7 774 l 1
EndSplineSet
EndChar

StartChar: uni0302.big4
Encoding: 118 -1 110
Width: 1764
Flags: W
HStem: 674 100<4.3 53.5755>
LayerCount: 2
Back
Fore
SplineSet
-5 774 m 1
 882 880 l 1
 1769 774 l 1
 1759 674 l 1
 882 760 l 1
 5 674 l 1
 -5 774 l 1
EndSplineSet
EndChar

StartChar: uni0302.big5
Encoding: 119 -1 111
Width: 2100
Flags: W
HStem: 674 100<4.3 64.6698>
LayerCount: 2
Back
Fore
SplineSet
-5 774 m 1
 1050 880 l 1
 2105 774 l 1
 2095 674 l 1
 1050 760 l 1
 5 674 l 1
 -5 774 l 1
EndSplineSet
EndChar

StartChar: uni0303
Encoding: 120 771 112
Width: 420
Flags: W
HStem: 674 100<257.708 333.795> 717 21G<40.0909 72> 770 100<86.2052 162.292>
LayerCount: 2
Back
Fore
SplineSet
63 717 m 1x60
 0 772 l 1
 36 814 66 870 122 870 c 0x60
 169 870 210 841 245 808 c 0
 261 793 276 774 298 774 c 0
 327 774 339 806 357 827 c 1
 420 772 l 1
 384 730 354 674 298 674 c 0x80
 251 674 210 703 175 736 c 0
 159 751 144 770 122 770 c 0
 93 770 81 738 63 717 c 1x60
EndSplineSet
EndChar

StartChar: uni0303.big1
Encoding: 121 -1 113
Width: 756
Flags: W
HStem: 674 100<446.365 632.128> 770 100<123.872 309.635>
LayerCount: 2
Back
Fore
SplineSet
45 702 m 1x40
 0 772 l 1
 66 814 127 870 206 870 c 0x40
 274 870 340 848 401 816 c 0
 448 792 498 774 550 774 c 0
 610 774 661 810 711 842 c 1
 756 772 l 1
 690 730 629 674 550 674 c 0x80
 482 674 416 696 355 728 c 0
 308 752 258 770 206 770 c 0
 146 770 95 734 45 702 c 1x40
EndSplineSet
EndChar

StartChar: uni0303.big2
Encoding: 122 -1 114
Width: 1092
Flags: W
HStem: 674 100<643.024 918.115> 770 100<173.885 448.976>
LayerCount: 2
Back
Fore
SplineSet
34 696 m 1x40
 0 772 l 1
 94 814 186 870 290 870 c 0x40
 383 870 474 849 562 819 c 0
 640 793 720 774 802 774 c 0
 892 774 976 812 1058 848 c 1
 1092 772 l 1
 998 731 906 674 802 674 c 0x80
 709 674 618 695 530 725 c 0
 452 751 372 770 290 770 c 0
 200 770 116 732 34 696 c 1x40
EndSplineSet
EndChar

StartChar: uni0303.big3
Encoding: 123 -1 115
Width: 1428
Flags: W
HStem: 674 100<843.404 1202.96> 770 100<225.037 589.888>
LayerCount: 2
Back
Fore
SplineSet
27 693 m 1x40
 0 772 l 1
 123 814 244 870 374 870 c 0x40
 493 870 610 849 726 821 c 0
 834 795 943 774 1054 774 c 0
 1174 774 1288 813 1401 851 c 1
 1428 772 l 1
 1305 731 1184 674 1054 674 c 0x80
 935 674 818 696 702 724 c 0
 594 750 485 770 374 770 c 0
 254 770 140 731 27 693 c 1x40
EndSplineSet
EndChar

StartChar: uni0303.big4
Encoding: 124 -1 116
Width: 1764
Flags: W
HStem: 674 100<1043.62 1486.32> 770 100<277.678 720.381>
LayerCount: 2
Back
Fore
SplineSet
22 692 m 1x40
 0 772 l 1
 151 813 301 870 458 870 c 0x40
 603 870 748 847 891 821 c 0
 1028 796 1167 774 1306 774 c 0
 1455 774 1599 814 1742 853 c 1
 1764 772 l 1
 1613 731 1463 674 1306 674 c 0x80
 1161 674 1016 697 873 723 c 0
 736 748 597 770 458 770 c 0
 309 770 165 731 22 692 c 1x40
EndSplineSet
EndChar

StartChar: uni0303.big5
Encoding: 125 -1 117
Width: 2100
Flags: W
HStem: 674 100<1301.34 1772.18> 770 100<327.815 802.361>
LayerCount: 2
Back
Fore
SplineSet
1558 674 m 0x80
 1218 674 883 770 542 770 c 0
 365 770 191 730 19 691 c 1
 0 772 l 1
 179 813 357 870 542 870 c 0x40
 714 870 886 845 1057 822 c 0
 1223 799 1390 774 1558 774 c 0
 1735 774 1909 814 2081 853 c 1
 2100 772 l 1
 1921 731 1743 674 1558 674 c 0x80
EndSplineSet
EndChar

StartChar: uni0311
Encoding: 126 785 118
Width: 420
Flags: W
HStem: 770 100<139.569 280.431>
LayerCount: 2
Back
Fore
SplineSet
75 691 m 1
 0 757 l 1
 55 820 127 870 210 870 c 0
 293 870 365 820 420 757 c 1
 345 691 l 1
 309 732 264 770 210 770 c 0
 156 770 111 732 75 691 c 1
EndSplineSet
EndChar

StartChar: uni0311.big1
Encoding: 127 -1 119
Width: 756
Flags: W
HStem: 770 100<210.404 545.751>
LayerCount: 2
Back
Fore
SplineSet
54 682 m 1
 0 766 l 1
 113 838 245 870 378 870 c 0
 511 870 644 838 756 766 c 1
 702 682 l 1
 606 743 492 770 378 770 c 0
 264 770 150 743 54 682 c 1
EndSplineSet
EndChar

StartChar: uni0311.big2
Encoding: 128 -1 120
Width: 1092
Flags: W
HStem: 770 100<282.006 809.994>
LayerCount: 2
Back
Fore
SplineSet
40 678 m 1
 0 770 l 1
 171 845 359 870 546 870 c 0
 733 870 921 845 1092 770 c 1
 1052 678 l 1
 893 748 719 770 546 770 c 0
 373 770 199 748 40 678 c 1
EndSplineSet
EndChar

StartChar: uni0311.big3
Encoding: 129 -1 121
Width: 1428
Flags: W
HStem: 770 100<453.922 974.078>
LayerCount: 2
Back
Fore
SplineSet
32 677 m 1
 0 771 l 1
 229 849 472 870 714 870 c 0
 956 870 1199 849 1428 771 c 1
 1396 677 l 1
 1177 750 945 770 714 770 c 0
 483 770 251 750 32 677 c 1
EndSplineSet
EndChar

StartChar: uni0311.big4
Encoding: 130 -1 122
Width: 1764
Flags: W
HStem: 676 96<24.1042 78.427 1685.74 1739.9> 770 100<621.529 1142.56>
LayerCount: 2
Back
Fore
SplineSet
26 676 m 1x80
 0 772 l 1x80
 287 850 585 870 882 870 c 0x40
 1179 870 1477 850 1764 772 c 1
 1738 676 l 1x80
 1460 752 1170 770 882 770 c 0x40
 594 770 305 752 26 676 c 1x80
EndSplineSet
EndChar

StartChar: uni0311.big5
Encoding: 131 -1 123
Width: 2100
Flags: W
HStem: 675 98<20.4286 96.9799 2003.02 2079.57> 770 100<788.305 1311.7>
LayerCount: 2
Back
Fore
SplineSet
22 675 m 1x80
 0 773 l 1x80
 344 852 697 870 1050 870 c 0x40
 1403 870 1756 852 2100 773 c 1
 2078 675 l 1x80
 1741 752 1395 770 1050 770 c 0x40
 705 770 359 752 22 675 c 1x80
EndSplineSet
EndChar

StartChar: uni20D7
Encoding: 132 8407 124
Width: 450
Flags: W
HStem: 762 75<90 321>
LayerCount: 2
Back
Fore
SplineSet
466 799 m 1
 314 647 l 1
 261 701 l 1
 322 762 l 1
 90 762 l 1
 90 837 l 1
 321 837 l 1
 261 897 l 1
 314 951 l 1
 466 799 l 1
EndSplineSet
EndChar

StartChar: uni0335
Encoding: 133 821 125
Width: 300
Flags: W
HStem: 296 84<4 296>
VStem: -4 308
LayerCount: 2
Back
Fore
SplineSet
4 380 m 1
 304 380 l 1
 296 296 l 1
 -4 296 l 1
 4 380 l 1
EndSplineSet
EndChar

StartChar: uni0337
Encoding: 134 823 126
Width: 300
Flags: W
HStem: 188 300
VStem: -4 308
LayerCount: 2
Back
Fore
SplineSet
4 288 m 1
 304 488 l 1
 296 388 l 1
 -4 188 l 1
 4 288 l 1
EndSplineSet
EndChar

StartChar: uni0338
Encoding: 135 824 127
Width: 480
Flags: W
HStem: 688 20G<391.714 454.294>
LayerCount: 2
Back
Fore
SplineSet
493 674 m 1
 81 -457 l 1
 -13 -423 l 1
 399 708 l 1
 493 674 l 1
EndSplineSet
EndChar
